<svg width="249" height="208" viewBox="0 0 249 208" fill="none" xmlns="http://www.w3.org/2000/svg">
<path d="M1.22257 164.853C1.9311 164.819 2.61338 164.803 3.26942 164.803C4.22536 164.803 4.96013 164.819 5.47371 164.853C5.53744 164.857 5.59555 164.881 5.64803 164.926C5.70051 164.968 5.73238 165.018 5.74363 165.078C5.91607 165.948 6.09039 166.941 6.26658 168.058C6.44653 169.176 6.57586 170.017 6.65458 170.583C6.73706 171.149 6.87764 172.152 7.07632 173.592C7.09507 173.468 7.13818 173.151 7.20566 172.641C7.27688 172.131 7.32374 171.796 7.34624 171.635C7.36873 171.47 7.41184 171.159 7.47557 170.701C7.5393 170.24 7.58804 169.903 7.62177 169.689C7.65551 169.475 7.70237 169.164 7.76235 168.756C7.82234 168.347 7.87482 168.01 7.9198 167.744C7.96479 167.477 8.01727 167.168 8.07725 166.816C8.13723 166.46 8.19722 166.122 8.2572 165.804C8.31718 165.485 8.37903 165.168 8.44276 164.853C9.16253 164.819 9.74547 164.803 10.1916 164.803C10.8739 164.803 11.6705 164.819 12.5814 164.853C12.6377 164.853 12.6827 164.872 12.7164 164.909C12.7501 164.943 12.767 164.986 12.767 165.039C12.767 165.095 12.7314 165.331 12.6602 165.747C12.0941 169.249 11.2431 173.449 10.1072 178.349C9.39496 178.383 8.44089 178.399 7.24502 178.399C6.2141 178.399 5.18131 178.383 4.14664 178.349C4.08666 178.349 4.03042 178.328 3.97794 178.287C3.92921 178.242 3.89734 178.188 3.88235 178.124C3.27879 175.477 2.75958 173.099 2.32472 170.988C1.88986 168.874 1.52248 166.829 1.22257 164.853ZM12.812 171.595C12.812 170.505 12.9301 169.534 13.1663 168.683C13.4024 167.828 13.7417 167.116 14.184 166.546C14.6302 165.976 15.1681 165.535 15.7979 165.224C16.4315 164.913 17.1456 164.737 17.9403 164.696C18.6714 164.696 19.3237 164.746 19.8972 164.848C20.4708 164.945 20.9956 165.106 21.4717 165.331C21.9516 165.552 22.3602 165.841 22.6976 166.197C23.035 166.553 23.3199 166.986 23.5523 167.496C23.7885 168.006 23.9609 168.6 24.0696 169.279C24.1821 169.957 24.2383 170.729 24.2383 171.595C24.2383 172.686 24.1184 173.659 23.8784 174.514C23.6385 175.365 23.2918 176.075 22.8382 176.645C22.3883 177.211 21.8466 177.65 21.2131 177.961C20.5795 178.268 19.8635 178.443 19.065 178.484C18.3377 178.484 17.6873 178.435 17.1137 178.338C16.5439 178.236 16.021 178.075 15.5449 177.854C15.0725 177.633 14.6676 177.346 14.3303 176.994C13.9966 176.638 13.7136 176.205 13.4811 175.695C13.2525 175.185 13.0838 174.593 12.9751 173.918C12.8663 173.239 12.812 172.465 12.812 171.595ZM17.513 171.595C17.513 172.12 17.5299 172.566 17.5636 172.934C17.6011 173.301 17.6461 173.592 17.6985 173.805C17.7548 174.015 17.8298 174.178 17.9235 174.295C18.0172 174.411 18.1109 174.486 18.2046 174.519C18.2984 174.553 18.4127 174.57 18.5477 174.57C18.6826 174.57 18.7951 174.553 18.885 174.519C18.975 174.486 19.065 174.411 19.155 174.295C19.2449 174.178 19.3143 174.015 19.363 173.805C19.4155 173.592 19.4567 173.301 19.4867 172.934C19.5205 172.566 19.5373 172.12 19.5373 171.595C19.5373 171.161 19.5261 170.78 19.5036 170.454C19.4811 170.124 19.4455 169.852 19.3968 169.639C19.348 169.425 19.2955 169.251 19.2393 169.116C19.1831 168.977 19.11 168.874 19.02 168.806C18.9338 168.739 18.8494 168.694 18.767 168.671C18.6882 168.645 18.5926 168.632 18.4802 168.632C18.3677 168.632 18.2721 168.643 18.1934 168.666C18.1184 168.688 18.0416 168.735 17.9628 168.806C17.8841 168.874 17.8185 168.977 17.766 169.116C17.7173 169.251 17.6723 169.427 17.6311 169.644C17.5898 169.858 17.5598 170.128 17.5411 170.454C17.5224 170.776 17.513 171.157 17.513 171.595ZM24.9581 171.595C24.9581 170.553 25.0518 169.639 25.2393 168.851C25.4305 168.06 25.6966 167.404 26.0378 166.883C26.3789 166.358 26.8081 165.933 27.3255 165.607C27.8466 165.277 28.4164 165.043 29.0349 164.904C29.6535 164.765 30.3564 164.696 31.1436 164.696C31.5635 164.696 31.959 164.728 32.3301 164.791C32.705 164.851 33.1642 164.947 33.7078 165.078L33.2242 168.604L31.1492 168.463C30.9731 168.452 30.8156 168.467 30.6769 168.508C30.5382 168.55 30.4032 168.638 30.272 168.773C30.1408 168.908 30.0321 169.091 29.9459 169.324C29.8597 169.552 29.7903 169.858 29.7378 170.24C29.6853 170.623 29.6591 171.074 29.6591 171.595C29.6591 172.12 29.6816 172.574 29.7266 172.956C29.7753 173.335 29.839 173.642 29.9178 173.878C30.0002 174.111 30.1052 174.293 30.2327 174.424C30.3639 174.555 30.5007 174.643 30.6432 174.688C30.7856 174.729 30.9543 174.743 31.1492 174.728L33.2242 174.593L33.6853 178.146C32.7893 178.311 31.9271 178.394 31.0986 178.394C30.66 178.394 30.257 178.379 29.8896 178.349C29.5223 178.315 29.1586 178.261 28.7987 178.186C28.4426 178.107 28.1183 178.006 27.8259 177.882C27.5335 177.758 27.2524 177.601 26.9825 177.41C26.7163 177.219 26.4801 176.997 26.2739 176.746C26.0677 176.491 25.8803 176.195 25.7116 175.858C25.5429 175.52 25.4042 175.142 25.2955 174.722C25.1868 174.302 25.1024 173.832 25.0424 173.31C24.9862 172.786 24.9581 172.214 24.9581 171.595ZM34.7425 171.601C34.7425 169.502 34.7725 167.252 34.8324 164.853C35.5447 164.819 37.1005 164.803 39.4997 164.803C41.1979 164.803 42.5062 164.819 43.4247 164.853C43.4847 164.853 43.5372 164.876 43.5821 164.921C43.6271 164.966 43.6496 165.018 43.6496 165.078C43.6646 165.993 43.6721 166.641 43.6721 167.024C43.6721 167.612 43.6646 168.163 43.6496 168.677C43.0161 168.707 41.824 168.722 40.0733 168.722C39.7584 168.722 39.4735 168.72 39.2185 168.716C39.211 169.234 39.2054 169.627 39.2017 169.897C40.5437 169.905 41.4416 169.918 41.8952 169.937C41.9552 169.937 42.0076 169.959 42.0526 170.004C42.0976 170.049 42.1201 170.102 42.1201 170.161C42.1314 170.776 42.137 171.34 42.137 171.854C42.137 172.315 42.1314 172.816 42.1201 173.355H39.2017C39.2054 173.618 39.211 174.008 39.2185 174.525H39.4885C41.3254 174.525 42.6524 174.54 43.4697 174.57C43.5297 174.57 43.5821 174.593 43.6271 174.638C43.6721 174.683 43.6946 174.735 43.6946 174.795C43.7096 175.71 43.7171 176.358 43.7171 176.741C43.7171 177.329 43.7096 177.88 43.6946 178.394C42.9823 178.428 41.6965 178.444 39.8371 178.444C39.466 178.444 38.675 178.431 37.4641 178.405C36.257 178.383 35.4547 178.364 35.0574 178.349C34.9974 178.349 34.9449 178.326 34.8999 178.281C34.8549 178.236 34.8324 178.184 34.8324 178.124C34.7725 175.305 34.7425 173.131 34.7425 171.601ZM34.332 164.386C34.5869 163.888 34.8793 163.389 35.2092 162.891C35.5428 162.388 35.9458 161.815 36.4182 161.17C36.5157 161.043 36.63 160.975 36.7612 160.968C37.7471 160.919 38.8062 160.894 39.9383 160.894C40.6056 160.894 41.1248 160.896 41.4959 160.9C42.047 161.519 42.7555 162.403 43.6215 163.554C43.6328 163.569 43.6609 163.607 43.7059 163.667C43.7546 163.723 43.7958 163.775 43.8296 163.824C43.8671 163.869 43.9064 163.92 43.9476 163.976C43.9889 164.032 44.0208 164.083 44.0432 164.128C44.0657 164.169 44.077 164.201 44.077 164.223C44.077 164.287 44.0376 164.319 43.9589 164.319C43.1829 164.345 42.5793 164.358 42.1482 164.358C41.6384 164.358 41.1023 164.345 40.54 164.319C40.3488 164.057 40.1651 163.783 39.9889 163.498C39.8127 163.213 39.674 162.977 39.5728 162.789C39.4716 162.598 39.3366 162.34 39.1679 162.013C38.7556 162.842 38.3826 163.558 38.0489 164.162C38.0152 164.225 37.9646 164.28 37.8971 164.325C37.8296 164.366 37.7659 164.386 37.7059 164.386C36.8999 164.413 36.2907 164.426 35.8784 164.426C35.376 164.426 34.8606 164.413 34.332 164.386ZM50.8867 178.163C50.8867 178.103 50.9223 177.869 50.9935 177.46C51.1922 176.227 51.419 174.951 51.6739 173.631C51.9288 172.308 52.2587 170.668 52.6636 168.711C53.0685 166.75 53.3328 165.464 53.4565 164.853C54.2062 164.819 55.2372 164.803 56.5492 164.803C57.7714 164.803 58.8398 164.819 59.7545 164.853C59.8144 164.853 59.8707 164.876 59.9232 164.921C59.9756 164.962 60.0075 165.014 60.0188 165.078C60.1837 165.914 60.463 167.281 60.8566 169.177C61.254 171.074 61.5914 172.752 61.8688 174.21C62.1499 175.665 62.3899 177.044 62.5886 178.349C61.88 178.383 61.2277 178.399 60.6317 178.399C59.6757 178.399 58.941 178.383 58.4274 178.349C58.3637 178.345 58.3056 178.323 58.2531 178.281C58.2043 178.236 58.1743 178.184 58.1631 178.124C57.9944 177.262 57.8576 176.512 57.7526 175.875H55.6664C55.5464 176.677 55.4021 177.502 55.2334 178.349C54.5136 178.383 53.8932 178.399 53.3721 178.399C52.7498 178.399 51.9832 178.383 51.0722 178.349C51.016 178.349 50.971 178.332 50.9373 178.298C50.9035 178.261 50.8867 178.216 50.8867 178.163ZM56.0432 172.951H57.3084C57.2184 172.336 57.0966 171.46 56.9429 170.325C56.7892 169.185 56.6786 168.379 56.6111 167.907C56.5361 168.518 56.4368 169.395 56.3131 170.538C56.1894 171.678 56.0994 172.482 56.0432 172.951ZM63.3983 171.601C63.3983 169.502 63.4283 167.252 63.4883 164.853C64.2005 164.819 64.8566 164.803 65.4564 164.803C66.0749 164.803 66.8434 164.819 67.7619 164.853C67.8219 164.853 67.8744 164.876 67.9194 164.921C67.9643 164.966 67.9868 165.018 67.9868 165.078C68.0468 167.897 68.0768 170.072 68.0768 171.601C68.0768 173.7 68.0468 175.95 67.9868 178.349C67.2746 178.383 66.6185 178.399 66.0187 178.399C65.4002 178.399 64.6317 178.383 63.7132 178.349C63.6532 178.349 63.6007 178.326 63.5558 178.281C63.5108 178.236 63.4883 178.184 63.4883 178.124C63.4283 175.305 63.3983 173.131 63.3983 171.601ZM69.6963 171.601C69.6963 169.502 69.7263 167.252 69.7863 164.853C70.4985 164.819 71.1171 164.803 71.6419 164.803C72.088 164.803 72.7366 164.819 73.5875 164.853C73.6963 164.857 73.7787 164.932 73.835 165.078L76.163 170.836L76.0842 164.853C76.8003 164.819 77.4563 164.803 78.0524 164.803C78.6372 164.803 79.3307 164.819 80.1329 164.853C80.1967 164.857 80.2492 164.881 80.2904 164.926C80.3354 164.968 80.3579 165.018 80.3579 165.078C80.4179 167.897 80.4478 170.072 80.4478 171.601C80.4478 173.7 80.4179 175.95 80.3579 178.349C79.7356 178.383 79.1545 178.399 78.6147 178.399C77.9736 178.399 77.2876 178.383 76.5566 178.349C76.4441 178.345 76.3616 178.27 76.3092 178.124L73.9812 172.366L74.0599 178.349C73.3476 178.383 72.7291 178.399 72.2042 178.399C71.6119 178.399 70.8809 178.383 70.0112 178.349C69.9475 178.345 69.8931 178.323 69.8481 178.281C69.8069 178.236 69.7863 178.184 69.7863 178.124C69.7263 175.305 69.6963 173.131 69.6963 171.601ZM86.5659 171.601C86.5659 172.493 86.579 173.483 86.6052 174.57H86.9876C87.1001 174.57 87.1957 174.559 87.2744 174.536C87.3569 174.51 87.4412 174.463 87.5275 174.396C87.6137 174.328 87.6849 174.227 87.7411 174.092C87.7974 173.953 87.848 173.777 87.893 173.564C87.9379 173.346 87.9717 173.074 87.9942 172.748C88.0167 172.418 88.0279 172.034 88.0279 171.595C88.0279 171.074 88.0092 170.63 87.9717 170.263C87.9379 169.895 87.893 169.607 87.8367 169.397C87.7842 169.183 87.7093 169.018 87.6118 168.902C87.5181 168.782 87.4244 168.705 87.3306 168.671C87.2407 168.638 87.1263 168.621 86.9876 168.621H86.6109C86.5809 169.865 86.5659 170.859 86.5659 171.601ZM82.1123 171.601C82.1123 170.851 82.1198 169.764 82.1348 168.34C82.1498 166.915 82.1573 165.828 82.1573 165.078C83.818 164.823 85.28 164.696 86.5434 164.696C87.3306 164.696 88.0335 164.765 88.6521 164.904C89.2706 165.043 89.8386 165.277 90.3559 165.607C90.877 165.933 91.3081 166.358 91.6493 166.883C91.9904 167.404 92.2547 168.06 92.4421 168.851C92.6333 169.639 92.7289 170.553 92.7289 171.595C92.7289 172.214 92.6989 172.786 92.6389 173.31C92.5827 173.832 92.5002 174.302 92.3915 174.722C92.2828 175.142 92.1441 175.52 91.9754 175.858C91.8067 176.195 91.6193 176.491 91.4131 176.746C91.2069 176.997 90.9688 177.219 90.6989 177.41C90.4328 177.601 90.1535 177.758 89.8611 177.882C89.5687 178.006 89.2425 178.107 88.8826 178.186C88.5265 178.261 88.1647 178.315 87.7974 178.349C87.43 178.379 87.027 178.394 86.5884 178.394C86.4384 178.394 86.2754 178.39 86.0992 178.383C85.9267 178.379 85.7749 178.375 85.6437 178.371C85.5125 178.368 85.3344 178.358 85.1095 178.343C84.8845 178.328 84.7215 178.319 84.6203 178.315C84.519 178.308 84.3297 178.293 84.0523 178.27C83.7787 178.244 83.6062 178.229 83.535 178.225C83.4675 178.218 83.2707 178.201 82.9445 178.175C82.6184 178.145 82.431 178.128 82.3822 178.124C82.3222 178.124 82.2698 178.101 82.2248 178.056C82.1798 178.011 82.1573 177.959 82.1573 177.899C82.1573 177.205 82.1498 176.173 82.1348 174.801C82.1198 173.429 82.1123 172.362 82.1123 171.601ZM93.0832 178.163C93.0832 178.103 93.1188 177.869 93.19 177.46C93.3887 176.227 93.6155 174.951 93.8704 173.631C94.1253 172.308 94.4552 170.668 94.8601 168.711C95.265 166.75 95.5293 165.464 95.653 164.853C96.4027 164.819 97.4337 164.803 98.7457 164.803C99.9678 164.803 101.036 164.819 101.951 164.853C102.011 164.853 102.067 164.876 102.12 164.921C102.172 164.962 102.204 165.014 102.215 165.078C102.38 165.914 102.659 167.281 103.053 169.177C103.45 171.074 103.788 172.752 104.065 174.21C104.346 175.665 104.586 177.044 104.785 178.349C104.077 178.383 103.424 178.399 102.828 178.399C101.872 178.399 101.137 178.383 100.624 178.349C100.56 178.345 100.502 178.323 100.45 178.281C100.401 178.236 100.371 178.184 100.36 178.124C100.191 177.262 100.054 176.512 99.9491 175.875H97.8629C97.7429 176.677 97.5986 177.502 97.4299 178.349C96.7101 178.383 96.0897 178.399 95.5686 178.399C94.9463 178.399 94.1797 178.383 93.2687 178.349C93.2125 178.349 93.1675 178.332 93.1338 178.298C93.1 178.261 93.0832 178.216 93.0832 178.163ZM98.2396 172.951H99.5049C99.4149 172.336 99.2931 171.46 99.1394 170.325C98.9857 169.185 98.8751 168.379 98.8076 167.907C98.7326 168.518 98.6333 169.395 98.5096 170.538C98.3859 171.678 98.2959 172.482 98.2396 172.951ZM112.343 171.601C112.343 169.502 112.373 167.252 112.433 164.853C113.145 164.819 113.763 164.803 114.288 164.803C114.734 164.803 115.383 164.819 116.234 164.853C116.343 164.857 116.425 164.932 116.481 165.078L118.809 170.836L118.731 164.853C119.447 164.819 120.103 164.803 120.699 164.803C121.284 164.803 121.977 164.819 122.779 164.853C122.843 164.857 122.896 164.881 122.937 164.926C122.982 164.968 123.004 165.018 123.004 165.078C123.064 167.897 123.094 170.072 123.094 171.601C123.094 173.7 123.064 175.95 123.004 178.349C122.382 178.383 121.801 178.399 121.261 178.399C120.62 178.399 119.934 178.383 119.203 178.349C119.09 178.345 119.008 178.27 118.956 178.124L116.628 172.366L116.706 178.349C115.994 178.383 115.375 178.399 114.851 178.399C114.258 178.399 113.527 178.383 112.658 178.349C112.594 178.345 112.539 178.323 112.494 178.281C112.453 178.236 112.433 178.184 112.433 178.124C112.373 175.305 112.343 173.131 112.343 171.601ZM123.898 178.163C123.898 178.103 123.934 177.869 124.005 177.46C124.204 176.227 124.431 174.951 124.686 173.631C124.94 172.308 125.27 170.668 125.675 168.711C126.08 166.75 126.344 165.464 126.468 164.853C127.218 164.819 128.249 164.803 129.561 164.803C130.783 164.803 131.851 164.819 132.766 164.853C132.826 164.853 132.882 164.876 132.935 164.921C132.987 164.962 133.019 165.014 133.03 165.078C133.195 165.914 133.475 167.281 133.868 169.177C134.266 171.074 134.603 172.752 134.88 174.21C135.162 175.665 135.402 177.044 135.6 178.349C134.892 178.383 134.239 178.399 133.643 178.399C132.687 178.399 131.953 178.383 131.439 178.349C131.375 178.345 131.317 178.323 131.265 178.281C131.216 178.236 131.186 178.184 131.175 178.124C131.006 177.262 130.869 176.512 130.764 175.875H128.678C128.558 176.677 128.414 177.502 128.245 178.349C127.525 178.383 126.905 178.399 126.384 178.399C125.761 178.399 124.995 178.383 124.084 178.349C124.028 178.349 123.983 178.332 123.949 178.298C123.915 178.261 123.898 178.216 123.898 178.163ZM129.055 172.951H130.32C130.23 172.336 130.108 171.46 129.955 170.325C129.801 169.185 129.69 168.379 129.623 167.907C129.548 168.518 129.448 169.395 129.325 170.538C129.201 171.678 129.111 172.482 129.055 172.951ZM125.298 161.957C125.298 161.867 125.336 161.802 125.411 161.76C126.011 161.386 126.507 161.125 126.901 160.979C127.295 160.829 127.668 160.748 128.02 160.737C128.365 160.737 128.843 160.834 129.454 161.029C130.069 161.224 130.536 161.322 130.854 161.322C131.36 161.322 132.041 161.103 132.895 160.664C133.237 161.222 133.555 161.77 133.851 162.306C133.874 162.351 133.924 162.445 134.003 162.587C134.086 162.726 134.144 162.831 134.178 162.902C134.211 162.969 134.228 163.018 134.228 163.048C134.228 163.134 134.191 163.202 134.116 163.251C133.036 163.989 132.121 164.358 131.372 164.358C131.049 164.358 130.612 164.276 130.061 164.111C129.51 163.946 129.077 163.864 128.762 163.864C128.219 163.864 127.538 164.075 126.721 164.499C126.451 164.06 126.146 163.535 125.805 162.924C125.771 162.861 125.726 162.78 125.67 162.683C125.613 162.585 125.567 162.505 125.529 162.441C125.492 162.373 125.452 162.304 125.411 162.233C125.373 162.162 125.345 162.103 125.327 162.058C125.308 162.01 125.298 161.976 125.298 161.957ZM135.825 171.595C135.825 169.421 136.269 167.747 137.158 166.574C138.046 165.401 139.296 164.774 140.908 164.696C141.636 164.696 142.282 164.746 142.848 164.848C143.418 164.945 143.934 165.106 144.395 165.331C144.86 165.552 145.253 165.841 145.576 166.197C145.898 166.55 146.168 166.983 146.385 167.496C146.607 168.01 146.768 168.604 146.869 169.279C146.974 169.953 147.027 170.726 147.027 171.595C147.027 173.781 146.595 175.457 145.733 176.623C144.871 177.785 143.638 178.405 142.033 178.484C141.156 178.484 140.391 178.413 139.739 178.27C139.09 178.124 138.513 177.888 138.007 177.562C137.501 177.235 137.09 176.804 136.775 176.268C136.461 175.732 136.222 175.08 136.061 174.311C135.904 173.543 135.825 172.638 135.825 171.595ZM140.481 171.595C140.481 172.251 140.5 172.782 140.537 173.187C140.575 173.592 140.639 173.893 140.729 174.092C140.819 174.291 140.914 174.42 141.015 174.48C141.117 174.54 141.253 174.57 141.426 174.57C141.598 174.57 141.735 174.54 141.836 174.48C141.938 174.42 142.033 174.291 142.123 174.092C142.213 173.893 142.277 173.592 142.314 173.187C142.352 172.782 142.371 172.251 142.371 171.595C142.371 171.074 142.354 170.63 142.32 170.263C142.286 169.895 142.243 169.607 142.191 169.397C142.138 169.187 142.065 169.024 141.971 168.908C141.881 168.791 141.789 168.716 141.696 168.683C141.606 168.649 141.493 168.632 141.358 168.632C141.246 168.632 141.152 168.643 141.077 168.666C141.006 168.688 140.935 168.735 140.863 168.806C140.792 168.878 140.734 168.981 140.689 169.116C140.648 169.247 140.61 169.423 140.577 169.644C140.543 169.862 140.519 170.132 140.504 170.454C140.489 170.773 140.481 171.153 140.481 171.595ZM154.129 178.163C154.129 178.103 154.164 177.869 154.235 177.46C154.434 176.227 154.661 174.951 154.916 173.631C155.171 172.308 155.501 170.668 155.906 168.711C156.31 166.75 156.575 165.464 156.698 164.853C157.448 164.819 158.479 164.803 159.791 164.803C161.013 164.803 162.082 164.819 162.996 164.853C163.056 164.853 163.113 164.876 163.165 164.921C163.218 164.962 163.249 165.014 163.261 165.078C163.426 165.914 163.705 167.281 164.099 169.177C164.496 171.074 164.833 172.752 165.111 174.21C165.392 175.665 165.632 177.044 165.831 178.349C165.122 178.383 164.47 178.399 163.874 178.399C162.918 178.399 162.183 178.383 161.669 178.349C161.606 178.345 161.548 178.323 161.495 178.281C161.446 178.236 161.416 178.184 161.405 178.124C161.236 177.262 161.1 176.512 160.995 175.875H158.908C158.788 176.677 158.644 177.502 158.475 178.349C157.756 178.383 157.135 178.399 156.614 178.399C155.992 178.399 155.225 178.383 154.314 178.349C154.258 178.349 154.213 178.332 154.179 178.298C154.146 178.261 154.129 178.216 154.129 178.163ZM159.285 172.951H160.55C160.46 172.336 160.339 171.46 160.185 170.325C160.031 169.185 159.921 168.379 159.853 167.907C159.778 168.518 159.679 169.395 159.555 170.538C159.431 171.678 159.341 172.482 159.285 172.951ZM171.139 171.601C171.139 172.493 171.152 173.483 171.178 174.57H171.561C171.673 174.57 171.769 174.559 171.847 174.536C171.93 174.51 172.014 174.463 172.1 174.396C172.187 174.328 172.258 174.227 172.314 174.092C172.37 173.953 172.421 173.777 172.466 173.564C172.511 173.346 172.545 173.074 172.567 172.748C172.59 172.418 172.601 172.034 172.601 171.595C172.601 171.074 172.582 170.63 172.545 170.263C172.511 169.895 172.466 169.607 172.41 169.397C172.357 169.183 172.282 169.018 172.185 168.902C172.091 168.782 171.997 168.705 171.904 168.671C171.814 168.638 171.699 168.621 171.561 168.621H171.184C171.154 169.865 171.139 170.859 171.139 171.601ZM166.685 171.601C166.685 170.851 166.693 169.764 166.708 168.34C166.723 166.915 166.73 165.828 166.73 165.078C168.391 164.823 169.853 164.696 171.116 164.696C171.904 164.696 172.606 164.765 173.225 164.904C173.844 165.043 174.412 165.277 174.929 165.607C175.45 165.933 175.881 166.358 176.222 166.883C176.563 167.404 176.828 168.06 177.015 168.851C177.206 169.639 177.302 170.553 177.302 171.595C177.302 172.214 177.272 172.786 177.212 173.31C177.156 173.832 177.073 174.302 176.964 174.722C176.856 175.142 176.717 175.52 176.548 175.858C176.38 176.195 176.192 176.491 175.986 176.746C175.78 176.997 175.542 177.219 175.272 177.41C175.006 177.601 174.726 177.758 174.434 177.882C174.142 178.006 173.815 178.107 173.456 178.186C173.099 178.261 172.738 178.315 172.37 178.349C172.003 178.379 171.6 178.394 171.161 178.394C171.011 178.394 170.848 178.39 170.672 178.383C170.5 178.379 170.348 178.375 170.217 178.371C170.085 178.368 169.907 178.358 169.682 178.343C169.457 178.328 169.294 178.319 169.193 178.315C169.092 178.308 168.903 178.293 168.625 178.27C168.352 178.244 168.179 178.229 168.108 178.225C168.04 178.218 167.844 178.201 167.517 178.175C167.191 178.145 167.004 178.128 166.955 178.124C166.895 178.124 166.843 178.101 166.798 178.056C166.753 178.011 166.73 177.959 166.73 177.899C166.73 177.205 166.723 176.173 166.708 174.801C166.693 173.429 166.685 172.362 166.685 171.601ZM178.471 171.601C178.471 169.502 178.501 167.252 178.561 164.853C179.274 164.819 179.93 164.803 180.53 164.803C181.148 164.803 181.917 164.819 182.835 164.853C182.895 164.853 182.948 164.876 182.993 164.921C183.038 164.966 183.06 165.018 183.06 165.078C183.12 167.897 183.15 170.072 183.15 171.601C183.15 173.7 183.12 175.95 183.06 178.349C182.348 178.383 181.692 178.399 181.092 178.399C180.473 178.399 179.705 178.383 178.786 178.349C178.726 178.349 178.674 178.326 178.629 178.281C178.584 178.236 178.561 178.184 178.561 178.124C178.501 175.305 178.471 173.131 178.471 171.601ZM184.32 171.595C184.32 170.553 184.413 169.639 184.601 168.851C184.792 168.06 185.058 167.404 185.399 166.883C185.74 166.358 186.17 165.933 186.687 165.607C187.208 165.277 187.778 165.043 188.396 164.904C189.015 164.765 189.718 164.696 190.505 164.696C190.925 164.696 191.32 164.728 191.692 164.791C192.067 164.851 192.526 164.947 193.069 165.078L192.586 168.604L190.511 168.463C190.335 168.452 190.177 168.467 190.038 168.508C189.9 168.55 189.765 168.638 189.634 168.773C189.502 168.908 189.394 169.091 189.307 169.324C189.221 169.552 189.152 169.858 189.099 170.24C189.047 170.623 189.021 171.074 189.021 171.595C189.021 172.12 189.043 172.574 189.088 172.956C189.137 173.335 189.201 173.642 189.279 173.878C189.362 174.111 189.467 174.293 189.594 174.424C189.725 174.555 189.862 174.643 190.005 174.688C190.147 174.729 190.316 174.743 190.511 174.728L192.586 174.593L193.047 178.146C192.151 178.311 191.289 178.394 190.46 178.394C190.022 178.394 189.619 178.379 189.251 178.349C188.884 178.315 188.52 178.261 188.16 178.186C187.804 178.107 187.48 178.006 187.187 177.882C186.895 177.758 186.614 177.601 186.344 177.41C186.078 177.219 185.842 176.997 185.635 176.746C185.429 176.491 185.242 176.195 185.073 175.858C184.904 175.52 184.766 175.142 184.657 174.722C184.548 174.302 184.464 173.832 184.404 173.31C184.348 172.786 184.32 172.214 184.32 171.595ZM194.104 171.601C194.104 169.502 194.134 167.252 194.194 164.853C194.906 164.819 195.562 164.803 196.162 164.803C196.781 164.803 197.549 164.819 198.468 164.853C198.528 164.853 198.58 164.876 198.625 164.921C198.67 164.966 198.693 165.018 198.693 165.078C198.752 167.897 198.782 170.072 198.782 171.601C198.782 173.7 198.752 175.95 198.693 178.349C197.98 178.383 197.324 178.399 196.724 178.399C196.106 178.399 195.337 178.383 194.419 178.349C194.359 178.349 194.306 178.326 194.261 178.281C194.216 178.236 194.194 178.184 194.194 178.124C194.134 175.305 194.104 173.131 194.104 171.601ZM199.952 171.595C199.952 170.505 200.07 169.534 200.306 168.683C200.543 167.828 200.882 167.116 201.324 166.546C201.77 165.976 202.308 165.535 202.938 165.224C203.572 164.913 204.286 164.737 205.08 164.696C205.811 164.696 206.464 164.746 207.037 164.848C207.611 164.945 208.136 165.106 208.612 165.331C209.092 165.552 209.5 165.841 209.838 166.197C210.175 166.553 210.46 166.986 210.692 167.496C210.929 168.006 211.101 168.6 211.21 169.279C211.322 169.957 211.378 170.729 211.378 171.595C211.378 172.686 211.258 173.659 211.019 174.514C210.779 175.365 210.432 176.075 209.978 176.645C209.528 177.211 208.987 177.65 208.353 177.961C207.72 178.268 207.004 178.443 206.205 178.484C205.478 178.484 204.827 178.435 204.254 178.338C203.684 178.236 203.161 178.075 202.685 177.854C202.213 177.633 201.808 177.346 201.47 176.994C201.137 176.638 200.854 176.205 200.621 175.695C200.393 175.185 200.224 174.593 200.115 173.918C200.006 173.239 199.952 172.465 199.952 171.595ZM204.653 171.595C204.653 172.12 204.67 172.566 204.704 172.934C204.741 173.301 204.786 173.592 204.839 173.805C204.895 174.015 204.97 174.178 205.064 174.295C205.157 174.411 205.251 174.486 205.345 174.519C205.438 174.553 205.553 174.57 205.688 174.57C205.823 174.57 205.935 174.553 206.025 174.519C206.115 174.486 206.205 174.411 206.295 174.295C206.385 174.178 206.454 174.015 206.503 173.805C206.556 173.592 206.597 173.301 206.627 172.934C206.661 172.566 206.677 172.12 206.677 171.595C206.677 171.161 206.666 170.78 206.644 170.454C206.621 170.124 206.586 169.852 206.537 169.639C206.488 169.425 206.436 169.251 206.379 169.116C206.323 168.977 206.25 168.874 206.16 168.806C206.074 168.739 205.99 168.694 205.907 168.671C205.828 168.645 205.733 168.632 205.62 168.632C205.508 168.632 205.412 168.643 205.333 168.666C205.259 168.688 205.182 168.735 205.103 168.806C205.024 168.874 204.959 168.977 204.906 169.116C204.857 169.251 204.812 169.427 204.771 169.644C204.73 169.858 204.7 170.128 204.681 170.454C204.662 170.776 204.653 171.157 204.653 171.595ZM212.548 171.601C212.548 169.502 212.578 167.252 212.638 164.853C213.35 164.819 213.969 164.803 214.494 164.803C214.94 164.803 215.588 164.819 216.439 164.853C216.548 164.857 216.631 164.932 216.687 165.078L219.015 170.836L218.936 164.853C219.652 164.819 220.308 164.803 220.904 164.803C221.489 164.803 222.182 164.819 222.985 164.853C223.048 164.857 223.101 164.881 223.142 164.926C223.187 164.968 223.21 165.018 223.21 165.078C223.27 167.897 223.3 170.072 223.3 171.601C223.3 173.7 223.27 175.95 223.21 178.349C222.587 178.383 222.006 178.399 221.466 178.399C220.825 178.399 220.139 178.383 219.408 178.349C219.296 178.345 219.213 178.27 219.161 178.124L216.833 172.366L216.912 178.349C216.199 178.383 215.581 178.399 215.056 178.399C214.464 178.399 213.733 178.383 212.863 178.349C212.799 178.345 212.745 178.323 212.7 178.281C212.659 178.236 212.638 178.184 212.638 178.124C212.578 175.305 212.548 173.131 212.548 171.601ZM224.469 171.595C224.469 170.505 224.587 169.534 224.824 168.683C225.06 167.828 225.399 167.116 225.841 166.546C226.287 165.976 226.825 165.535 227.455 165.224C228.089 164.913 228.803 164.737 229.598 164.696C230.329 164.696 230.981 164.746 231.554 164.848C232.128 164.945 232.653 165.106 233.129 165.331C233.609 165.552 234.017 165.841 234.355 166.197C234.692 166.553 234.977 166.986 235.21 167.496C235.446 168.006 235.618 168.6 235.727 169.279C235.839 169.957 235.896 170.729 235.896 171.595C235.896 172.686 235.776 173.659 235.536 174.514C235.296 175.365 234.949 176.075 234.495 176.645C234.046 177.211 233.504 177.65 232.87 177.961C232.237 178.268 231.521 178.443 230.722 178.484C229.995 178.484 229.345 178.435 228.771 178.338C228.201 178.236 227.678 178.075 227.202 177.854C226.73 177.633 226.325 177.346 225.988 176.994C225.654 176.638 225.371 176.205 225.138 175.695C224.91 175.185 224.741 174.593 224.632 173.918C224.524 173.239 224.469 172.465 224.469 171.595ZM229.17 171.595C229.17 172.12 229.187 172.566 229.221 172.934C229.258 173.301 229.303 173.592 229.356 173.805C229.412 174.015 229.487 174.178 229.581 174.295C229.674 174.411 229.768 174.486 229.862 174.519C229.956 174.553 230.07 174.57 230.205 174.57C230.34 174.57 230.452 174.553 230.542 174.519C230.632 174.486 230.722 174.411 230.812 174.295C230.902 174.178 230.972 174.015 231.02 173.805C231.073 173.592 231.114 173.301 231.144 172.934C231.178 172.566 231.195 172.12 231.195 171.595C231.195 171.161 231.183 170.78 231.161 170.454C231.138 170.124 231.103 169.852 231.054 169.639C231.005 169.425 230.953 169.251 230.897 169.116C230.84 168.977 230.767 168.874 230.677 168.806C230.591 168.739 230.507 168.694 230.424 168.671C230.345 168.645 230.25 168.632 230.137 168.632C230.025 168.632 229.929 168.643 229.851 168.666C229.776 168.688 229.699 168.735 229.62 168.806C229.541 168.874 229.476 168.977 229.423 169.116C229.375 169.251 229.33 169.427 229.288 169.644C229.247 169.858 229.217 170.128 229.198 170.454C229.18 170.776 229.17 171.157 229.17 171.595ZM236.638 171.685C236.638 169.53 236.668 167.252 236.728 164.853C237.44 164.819 238.096 164.803 238.696 164.803C239.314 164.803 240.083 164.819 241.001 164.853C241.061 164.853 241.114 164.876 241.159 164.921C241.204 164.966 241.226 165.018 241.226 165.078C241.286 167.897 241.316 170.326 241.316 172.366C241.316 172.857 241.333 173.256 241.367 173.564C241.401 173.871 241.459 174.105 241.541 174.266C241.624 174.424 241.716 174.529 241.817 174.581C241.918 174.634 242.051 174.66 242.216 174.66C242.437 174.66 242.604 174.609 242.717 174.508C242.829 174.407 242.915 174.19 242.975 173.856C243.039 173.519 243.071 173.02 243.071 172.36C243.071 169.755 243.101 167.252 243.161 164.853C243.877 164.819 244.533 164.803 245.129 164.803C245.747 164.803 246.516 164.819 247.434 164.853C247.494 164.853 247.547 164.876 247.592 164.921C247.637 164.966 247.659 165.018 247.659 165.078C247.719 167.897 247.749 170.1 247.749 171.685C247.749 172.649 247.676 173.505 247.53 174.255C247.384 175.005 247.174 175.644 246.9 176.173C246.627 176.698 246.282 177.134 245.866 177.483C245.453 177.832 244.99 178.092 244.477 178.265C243.963 178.437 243.382 178.54 242.733 178.574C242.205 178.574 241.729 178.551 241.305 178.506C240.881 178.465 240.471 178.394 240.074 178.293C239.676 178.191 239.326 178.056 239.022 177.888C238.718 177.715 238.434 177.504 238.167 177.252C237.905 176.997 237.682 176.698 237.498 176.353C237.315 176.004 237.155 175.603 237.02 175.149C236.889 174.696 236.792 174.182 236.728 173.609C236.668 173.031 236.638 172.39 236.638 171.685ZM34.7537 190.563C34.7537 189.959 34.7612 189.389 34.7762 188.853C35.4922 188.819 37.2279 188.803 39.9833 188.803C42.1613 188.803 43.7096 188.819 44.6281 188.853C44.688 188.853 44.7405 188.876 44.7855 188.921C44.8305 188.966 44.853 189.018 44.853 189.078C44.868 189.925 44.8755 190.563 44.8755 190.99C44.8755 191.601 44.868 192.163 44.853 192.677C44.6093 192.688 43.7021 192.701 42.1314 192.716C42.1464 193.526 42.1539 194.488 42.1539 195.601C42.1539 197.7 42.1239 199.95 42.0639 202.349C41.3516 202.383 40.6956 202.399 40.0958 202.399C39.4772 202.399 38.7087 202.383 37.7902 202.349C37.7303 202.349 37.6778 202.326 37.6328 202.281C37.5878 202.236 37.5653 202.184 37.5653 202.124C37.5053 199.305 37.4753 197.131 37.4753 195.601C37.4753 194.908 37.4828 193.938 37.4978 192.694C36.6356 192.675 35.8034 192.654 35.0011 192.632C34.9412 192.632 34.8887 192.609 34.8437 192.565C34.7987 192.52 34.7762 192.467 34.7762 192.407C34.7612 191.545 34.7537 190.93 34.7537 190.563ZM44.4875 202.163C44.4875 202.103 44.5231 201.869 44.5943 201.46C44.793 200.227 45.0198 198.951 45.2747 197.631C45.5296 196.308 45.8595 194.668 46.2644 192.711C46.6693 190.75 46.9336 189.464 47.0573 188.853C47.807 188.819 48.838 188.803 50.15 188.803C51.3722 188.803 52.4406 188.819 53.3553 188.853C53.4152 188.853 53.4715 188.876 53.524 188.921C53.5764 188.962 53.6083 189.014 53.6196 189.078C53.7845 189.914 54.0638 191.281 54.4574 193.177C54.8548 195.074 55.1922 196.752 55.4696 198.21C55.7508 199.665 55.9907 201.044 56.1894 202.349C55.4808 202.383 54.8285 202.399 54.2325 202.399C53.2765 202.399 52.5418 202.383 52.0282 202.349C51.9645 202.345 51.9064 202.323 51.8539 202.281C51.8051 202.236 51.7751 202.184 51.7639 202.124C51.5952 201.262 51.4584 200.512 51.3534 199.875H49.2672C49.1472 200.677 49.0029 201.502 48.8342 202.349C48.1144 202.383 47.494 202.399 46.9729 202.399C46.3506 202.399 45.584 202.383 44.673 202.349C44.6168 202.349 44.5718 202.332 44.5381 202.298C44.5044 202.261 44.4875 202.216 44.4875 202.163ZM49.644 196.951H50.9092C50.8192 196.336 50.6974 195.46 50.5437 194.325C50.39 193.185 50.2794 192.379 50.2119 191.907C50.1369 192.518 50.0376 193.395 49.9139 194.538C49.7902 195.678 49.7002 196.482 49.644 196.951ZM57.0441 195.309C57.0441 194.559 57.0516 193.52 57.0666 192.193C57.0816 190.866 57.0891 189.828 57.0891 189.078C57.8388 188.962 58.6355 188.87 59.4789 188.803C60.3262 188.731 61.0665 188.696 61.7001 188.696C62.2474 188.696 62.7066 188.705 63.0778 188.724C63.4489 188.739 63.8482 188.776 64.2755 188.836C64.7066 188.893 65.0609 188.975 65.3383 189.084C65.6157 189.192 65.8931 189.342 66.1705 189.534C66.448 189.725 66.6635 189.957 66.8172 190.231C66.9747 190.505 67.1021 190.84 67.1996 191.237C67.2971 191.635 67.3458 192.09 67.3458 192.604C67.3458 193.417 67.1359 194.133 66.716 194.752C66.2961 195.37 65.7113 195.856 64.9616 196.208C65.4714 196.385 65.8856 196.744 66.2043 197.288C66.9503 198.754 67.5464 200.441 67.9925 202.349C67.3027 202.431 66.5173 202.473 65.6363 202.473C64.999 202.473 64.3974 202.454 63.8313 202.416C63.7601 202.413 63.6907 202.39 63.6232 202.349C63.5558 202.308 63.5108 202.255 63.4883 202.191C62.7573 199.972 62.1893 198.18 61.7844 196.816H61.4864C61.4939 197.236 61.5108 198.096 61.537 199.397C61.567 200.698 61.5839 201.682 61.5876 202.349C60.9728 202.375 60.3149 202.388 59.6139 202.388C58.9803 202.388 58.2137 202.375 57.314 202.349C57.2503 202.349 57.1959 202.328 57.1509 202.287C57.1097 202.242 57.0891 202.188 57.0891 202.124C57.0891 201.43 57.0816 200.311 57.0666 198.767C57.0516 197.222 57.0441 196.07 57.0441 195.309ZM61.4752 194.049H61.8575C62.2137 194.049 62.5005 193.961 62.7179 193.785C62.9391 193.605 63.0497 193.369 63.0497 193.076C63.0497 192.709 62.9747 192.437 62.8247 192.261C62.6748 192.081 62.4086 191.991 62.0262 191.991C61.8313 191.991 61.6514 191.997 61.4864 192.008C61.4789 192.885 61.4752 193.565 61.4752 194.049ZM68.8303 195.601C68.8303 193.502 68.8603 191.252 68.9203 188.853C69.6326 188.819 71.1883 188.803 73.5875 188.803C75.2857 188.803 76.5941 188.819 77.5125 188.853C77.5725 188.853 77.625 188.876 77.67 188.921C77.715 188.966 77.7375 189.018 77.7375 189.078C77.7525 189.993 77.76 190.641 77.76 191.024C77.76 191.612 77.7525 192.163 77.7375 192.677C77.1039 192.707 75.9118 192.722 74.1611 192.722C73.8462 192.722 73.5613 192.72 73.3064 192.716C73.2989 193.234 73.2933 193.627 73.2895 193.897C74.6316 193.905 75.5294 193.918 75.983 193.937C76.043 193.937 76.0955 193.959 76.1405 194.004C76.1855 194.049 76.208 194.102 76.208 194.161C76.2192 194.776 76.2248 195.34 76.2248 195.854C76.2248 196.315 76.2192 196.816 76.208 197.355H73.2895C73.2933 197.618 73.2989 198.008 73.3064 198.525H73.5763C75.4132 198.525 76.7403 198.54 77.5575 198.57C77.6175 198.57 77.67 198.593 77.715 198.638C77.76 198.683 77.7825 198.735 77.7825 198.795C77.7974 199.71 77.8049 200.358 77.8049 200.741C77.8049 201.329 77.7974 201.88 77.7825 202.394C77.0702 202.428 75.7843 202.444 73.9249 202.444C73.5538 202.444 72.7628 202.431 71.5519 202.405C70.3448 202.383 69.5426 202.364 69.1452 202.349C69.0852 202.349 69.0328 202.326 68.9878 202.281C68.9428 202.236 68.9203 202.184 68.9203 202.124C68.8603 199.305 68.8303 197.131 68.8303 195.601ZM79.042 195.601C79.042 193.502 79.072 191.252 79.132 188.853C79.8443 188.819 81.4 188.803 83.7993 188.803C85.2875 188.803 86.4909 188.819 87.4094 188.853C87.4693 188.853 87.5218 188.876 87.5668 188.921C87.6118 188.966 87.6343 189.018 87.6343 189.078C87.6493 189.993 87.6568 190.641 87.6568 191.024C87.6568 191.612 87.6493 192.163 87.6343 192.677C86.9183 192.711 85.8274 192.728 84.3616 192.728C84.0842 192.728 83.833 192.726 83.6081 192.722C83.6081 192.917 83.6043 193.23 83.5968 193.661C83.5931 194.088 83.5893 194.42 83.5856 194.656C84.8115 194.671 85.6512 194.686 86.1048 194.701C86.1648 194.701 86.2173 194.724 86.2622 194.769C86.3072 194.814 86.3297 194.866 86.3297 194.926C86.3447 195.841 86.3522 196.49 86.3522 196.872C86.3522 197.46 86.3447 198.012 86.3297 198.525C85.7824 198.551 84.8733 198.568 83.6025 198.576C83.6212 200.675 83.6306 201.933 83.6306 202.349C82.9183 202.383 82.2623 202.399 81.6625 202.399C81.0439 202.399 80.2754 202.383 79.3569 202.349C79.297 202.349 79.2445 202.326 79.1995 202.281C79.1545 202.236 79.132 202.184 79.132 202.124C79.072 199.305 79.042 197.131 79.042 195.601ZM87.6737 202.163C87.6737 202.103 87.7093 201.869 87.7805 201.46C87.9792 200.227 88.206 198.951 88.4609 197.631C88.7158 196.308 89.0457 194.668 89.4506 192.711C89.8555 190.75 90.1198 189.464 90.2435 188.853C90.9932 188.819 92.0241 188.803 93.3362 188.803C94.5583 188.803 95.6267 188.819 96.5414 188.853C96.6014 188.853 96.6577 188.876 96.7101 188.921C96.7626 188.962 96.7945 189.014 96.8057 189.078C96.9707 189.914 97.25 191.281 97.6436 193.177C98.041 195.074 98.3784 196.752 98.6558 198.21C98.9369 199.665 99.1769 201.044 99.3755 202.349C98.667 202.383 98.0147 202.399 97.4187 202.399C96.4627 202.399 95.728 202.383 95.2144 202.349C95.1506 202.345 95.0925 202.323 95.0401 202.281C94.9913 202.236 94.9613 202.184 94.9501 202.124C94.7814 201.262 94.6446 200.512 94.5396 199.875H92.4534C92.3334 200.677 92.1891 201.502 92.0204 202.349C91.3006 202.383 90.6802 202.399 90.1591 202.399C89.5368 202.399 88.7702 202.383 87.8592 202.349C87.803 202.349 87.758 202.332 87.7243 202.298C87.6905 202.261 87.6737 202.216 87.6737 202.163ZM92.8301 196.951H94.0954C94.0054 196.336 93.8835 195.46 93.7298 194.325C93.5761 193.185 93.4656 192.379 93.3981 191.907C93.3231 192.518 93.2238 193.395 93.1 194.538C92.9763 195.678 92.8864 196.482 92.8301 196.951ZM99.9154 202.214L100.466 198.148C102.123 198.669 103.452 198.93 104.453 198.93C104.843 198.93 105.139 198.849 105.342 198.688C105.548 198.523 105.651 198.34 105.651 198.137C105.651 198.062 105.636 197.995 105.606 197.935C105.576 197.871 105.522 197.813 105.443 197.76C105.368 197.704 105.295 197.657 105.224 197.62C105.156 197.579 105.051 197.535 104.909 197.49C104.77 197.442 104.654 197.404 104.56 197.378C104.466 197.348 104.328 197.307 104.144 197.254C103.81 197.161 103.55 197.086 103.362 197.029C103.179 196.969 102.916 196.87 102.575 196.731C102.238 196.593 101.968 196.454 101.765 196.315C101.563 196.173 101.331 195.982 101.068 195.742C100.809 195.498 100.607 195.236 100.461 194.954C100.318 194.673 100.195 194.332 100.09 193.931C99.9885 193.526 99.9379 193.084 99.9379 192.604C99.9379 192.09 99.9847 191.635 100.078 191.237C100.172 190.84 100.294 190.505 100.444 190.231C100.598 189.957 100.808 189.725 101.074 189.534C101.34 189.342 101.604 189.192 101.867 189.084C102.133 188.975 102.466 188.893 102.868 188.836C103.272 188.776 103.647 188.739 103.992 188.724C104.341 188.705 104.766 188.696 105.269 188.696C106.502 188.696 107.949 188.861 109.61 189.191L109.104 192.93C108.53 192.671 107.876 192.454 107.141 192.278C106.406 192.102 105.709 192.013 105.049 192.013C104.701 192.013 104.425 192.07 104.223 192.182C104.02 192.291 103.919 192.446 103.919 192.649C103.919 192.713 103.934 192.773 103.964 192.829C103.998 192.885 104.056 192.939 104.138 192.992C104.221 193.044 104.3 193.091 104.375 193.132C104.45 193.17 104.562 193.215 104.712 193.267C104.862 193.32 104.986 193.361 105.083 193.391C105.184 193.421 105.334 193.466 105.533 193.526C106.455 193.803 107.151 194.055 107.619 194.28C108.849 194.868 109.632 195.674 109.97 196.698C110.105 197.11 110.172 197.56 110.172 198.047C110.172 198.549 110.121 199.007 110.02 199.419C109.923 199.832 109.786 200.19 109.61 200.493C109.437 200.793 109.22 201.059 108.957 201.292C108.695 201.52 108.412 201.708 108.108 201.854C107.805 202 107.462 202.12 107.079 202.214C106.697 202.304 106.311 202.368 105.921 202.405C105.535 202.443 105.115 202.461 104.661 202.461C103.091 202.461 101.509 202.379 99.9154 202.214ZM118.045 195.601C118.045 194.848 118.052 193.755 118.067 192.323C118.082 190.891 118.09 189.809 118.09 189.078C119.75 188.823 121.212 188.696 122.476 188.696C123.079 188.696 123.593 188.709 124.016 188.735C124.444 188.761 124.884 188.818 125.338 188.904C125.795 188.99 126.176 189.112 126.479 189.269C126.783 189.423 127.077 189.631 127.362 189.893C127.647 190.156 127.87 190.475 128.031 190.849C128.196 191.221 128.328 191.672 128.425 192.205C128.522 192.733 128.571 193.339 128.571 194.021C128.571 194.493 128.543 194.928 128.487 195.325C128.431 195.723 128.35 196.083 128.245 196.405C128.14 196.724 128.005 197.012 127.84 197.271C127.679 197.53 127.497 197.758 127.295 197.957C127.096 198.152 126.865 198.323 126.603 198.469C126.344 198.615 126.071 198.739 125.782 198.84C125.493 198.937 125.173 199.016 124.821 199.076C124.468 199.136 124.108 199.179 123.741 199.206C123.377 199.232 122.978 199.245 122.543 199.245C122.573 200.969 122.588 202.004 122.588 202.349C121.887 202.379 121.227 202.394 120.609 202.394C120.106 202.394 119.342 202.379 118.314 202.349C118.254 202.349 118.202 202.326 118.157 202.281C118.112 202.236 118.09 202.184 118.09 202.124C118.09 201.43 118.082 200.36 118.067 198.913C118.052 197.466 118.045 196.362 118.045 195.601ZM122.498 195.556H122.852C122.991 195.556 123.109 195.549 123.207 195.534C123.308 195.519 123.411 195.483 123.516 195.427C123.625 195.367 123.711 195.286 123.775 195.185C123.842 195.08 123.896 194.936 123.938 194.752C123.983 194.568 124.005 194.347 124.005 194.088C124.005 193.837 124.001 193.637 123.994 193.487C123.99 193.333 123.973 193.192 123.943 193.065C123.917 192.938 123.883 192.844 123.842 192.784C123.805 192.724 123.745 192.671 123.662 192.626C123.58 192.581 123.49 192.555 123.392 192.548C123.299 192.536 123.171 192.531 123.01 192.531H122.498V195.556ZM128.341 202.163C128.341 202.103 128.376 201.869 128.447 201.46C128.646 200.227 128.873 198.951 129.128 197.631C129.383 196.308 129.713 194.668 130.118 192.711C130.522 190.75 130.787 189.464 130.91 188.853C131.66 188.819 132.691 188.803 134.003 188.803C135.225 188.803 136.294 188.819 137.208 188.853C137.268 188.853 137.325 188.876 137.377 188.921C137.43 188.962 137.461 189.014 137.473 189.078C137.638 189.914 137.917 191.281 138.311 193.177C138.708 195.074 139.045 196.752 139.323 198.21C139.604 199.665 139.844 201.044 140.043 202.349C139.334 202.383 138.682 202.399 138.086 202.399C137.13 202.399 136.395 202.383 135.881 202.349C135.818 202.345 135.76 202.323 135.707 202.281C135.658 202.236 135.628 202.184 135.617 202.124C135.448 201.262 135.312 200.512 135.207 199.875H133.12C133 200.677 132.856 201.502 132.687 202.349C131.968 202.383 131.347 202.399 130.826 202.399C130.204 202.399 129.437 202.383 128.526 202.349C128.47 202.349 128.425 202.332 128.391 202.298C128.358 202.261 128.341 202.216 128.341 202.163ZM133.497 196.951H134.762C134.672 196.336 134.551 195.46 134.397 194.325C134.243 193.185 134.133 192.379 134.065 191.907C133.99 192.518 133.891 193.395 133.767 194.538C133.643 195.678 133.553 196.482 133.497 196.951ZM140.897 195.309C140.897 194.559 140.905 193.52 140.92 192.193C140.935 190.866 140.942 189.828 140.942 189.078C141.692 188.962 142.489 188.87 143.332 188.803C144.179 188.731 144.92 188.696 145.553 188.696C146.101 188.696 146.56 188.705 146.931 188.724C147.302 188.739 147.701 188.776 148.129 188.836C148.56 188.893 148.914 188.975 149.191 189.084C149.469 189.192 149.746 189.342 150.024 189.534C150.301 189.725 150.517 189.957 150.67 190.231C150.828 190.505 150.955 190.84 151.053 191.237C151.15 191.635 151.199 192.09 151.199 192.604C151.199 193.417 150.989 194.133 150.569 194.752C150.149 195.37 149.564 195.856 148.815 196.208C149.325 196.385 149.739 196.744 150.057 197.288C150.803 198.754 151.4 200.441 151.846 202.349C151.156 202.431 150.37 202.473 149.49 202.473C148.852 202.473 148.251 202.454 147.684 202.416C147.613 202.413 147.544 202.39 147.476 202.349C147.409 202.308 147.364 202.255 147.341 202.191C146.61 199.972 146.042 198.18 145.638 196.816H145.34C145.347 197.236 145.364 198.096 145.39 199.397C145.42 200.698 145.437 201.682 145.441 202.349C144.826 202.375 144.168 202.388 143.467 202.388C142.834 202.388 142.067 202.375 141.167 202.349C141.103 202.349 141.049 202.328 141.004 202.287C140.963 202.242 140.942 202.188 140.942 202.124C140.942 201.43 140.935 200.311 140.92 198.767C140.905 197.222 140.897 196.07 140.897 195.309ZM145.328 194.049H145.711C146.067 194.049 146.354 193.961 146.571 193.785C146.792 193.605 146.903 193.369 146.903 193.076C146.903 192.709 146.828 192.437 146.678 192.261C146.528 192.081 146.262 191.991 145.879 191.991C145.684 191.991 145.505 191.997 145.34 192.008C145.332 192.885 145.328 193.565 145.328 194.049ZM151.868 202.163C151.868 202.103 151.904 201.869 151.975 201.46C152.174 200.227 152.4 198.951 152.655 197.631C152.91 196.308 153.24 194.668 153.645 192.711C154.05 190.75 154.314 189.464 154.438 188.853C155.188 188.819 156.219 188.803 157.531 188.803C158.753 188.803 159.821 188.819 160.736 188.853C160.796 188.853 160.852 188.876 160.905 188.921C160.957 188.962 160.989 189.014 161 189.078C161.165 189.914 161.444 191.281 161.838 193.177C162.235 195.074 162.573 196.752 162.85 198.21C163.131 199.665 163.371 201.044 163.57 202.349C162.861 202.383 162.209 202.399 161.613 202.399C160.657 202.399 159.922 202.383 159.409 202.349C159.345 202.345 159.287 202.323 159.235 202.281C159.186 202.236 159.156 202.184 159.145 202.124C158.976 201.262 158.839 200.512 158.734 199.875H156.648C156.528 200.677 156.384 201.502 156.215 202.349C155.495 202.383 154.875 202.399 154.354 202.399C153.731 202.399 152.965 202.383 152.054 202.349C151.997 202.349 151.952 202.332 151.919 202.298C151.885 202.261 151.868 202.216 151.868 202.163ZM157.025 196.951H158.29C158.2 196.336 158.078 195.46 157.924 194.325C157.771 193.185 157.66 192.379 157.593 191.907C157.518 192.518 157.418 193.395 157.294 194.538C157.171 195.678 157.081 196.482 157.025 196.951ZM171.128 195.601C171.128 193.502 171.158 191.252 171.218 188.853C171.93 188.819 172.586 188.803 173.186 188.803C173.804 188.803 174.573 188.819 175.491 188.853C175.551 188.853 175.604 188.876 175.649 188.921C175.694 188.966 175.716 189.018 175.716 189.078C175.746 190.454 175.761 192.028 175.761 193.802H177.246C177.246 191.759 177.261 190.109 177.291 188.853C178.003 188.819 178.659 188.803 179.259 188.803C179.877 188.803 180.646 188.819 181.564 188.853C181.624 188.853 181.677 188.876 181.722 188.921C181.767 188.966 181.789 189.018 181.789 189.078C181.849 191.897 181.879 194.072 181.879 195.601C181.879 197.7 181.849 199.95 181.789 202.349C181.077 202.383 180.421 202.399 179.821 202.399C179.202 202.399 178.434 202.383 177.516 202.349C177.456 202.349 177.403 202.326 177.358 202.281C177.313 202.236 177.291 202.184 177.291 202.124C177.268 201.138 177.253 199.638 177.246 197.625H175.761C175.761 199.575 175.746 201.149 175.716 202.349C175.004 202.383 174.348 202.399 173.748 202.399C173.129 202.399 172.361 202.383 171.442 202.349C171.382 202.349 171.33 202.326 171.285 202.281C171.24 202.236 171.218 202.184 171.218 202.124C171.158 199.305 171.128 197.131 171.128 195.601ZM183.049 195.595C183.049 194.505 183.167 193.534 183.403 192.683C183.639 191.828 183.978 191.116 184.421 190.546C184.867 189.976 185.405 189.535 186.035 189.224C186.668 188.913 187.382 188.737 188.177 188.696C188.908 188.696 189.56 188.746 190.134 188.848C190.708 188.945 191.232 189.106 191.709 189.331C192.188 189.552 192.597 189.841 192.934 190.197C193.272 190.553 193.557 190.986 193.789 191.496C194.025 192.006 194.198 192.6 194.306 193.279C194.419 193.957 194.475 194.729 194.475 195.595C194.475 196.686 194.355 197.659 194.115 198.514C193.875 199.365 193.529 200.075 193.075 200.645C192.625 201.211 192.083 201.65 191.45 201.961C190.816 202.268 190.1 202.443 189.302 202.484C188.575 202.484 187.924 202.435 187.351 202.338C186.781 202.236 186.258 202.075 185.782 201.854C185.309 201.633 184.904 201.346 184.567 200.994C184.233 200.638 183.95 200.205 183.718 199.695C183.489 199.185 183.321 198.593 183.212 197.918C183.103 197.239 183.049 196.465 183.049 195.595ZM187.75 195.595C187.75 196.12 187.767 196.566 187.8 196.934C187.838 197.301 187.883 197.592 187.935 197.805C187.992 198.015 188.067 198.178 188.16 198.295C188.254 198.411 188.348 198.486 188.441 198.519C188.535 198.553 188.649 198.57 188.784 198.57C188.919 198.57 189.032 198.553 189.122 198.519C189.212 198.486 189.302 198.411 189.392 198.295C189.482 198.178 189.551 198.015 189.6 197.805C189.652 197.592 189.694 197.301 189.724 196.934C189.757 196.566 189.774 196.12 189.774 195.595C189.774 195.161 189.763 194.78 189.74 194.454C189.718 194.124 189.682 193.852 189.634 193.639C189.585 193.425 189.532 193.251 189.476 193.116C189.42 192.977 189.347 192.874 189.257 192.806C189.171 192.739 189.086 192.694 189.004 192.671C188.925 192.645 188.829 192.632 188.717 192.632C188.604 192.632 188.509 192.643 188.43 192.666C188.355 192.688 188.278 192.735 188.2 192.806C188.121 192.874 188.055 192.977 188.003 193.116C187.954 193.251 187.909 193.427 187.868 193.644C187.827 193.858 187.797 194.128 187.778 194.454C187.759 194.776 187.75 195.157 187.75 195.595ZM195.33 202.439L195.499 198.75L197.731 198.93C197.933 198.949 198.102 198.949 198.237 198.93C198.376 198.911 198.513 198.859 198.648 198.773C198.786 198.683 198.895 198.553 198.974 198.385C199.056 198.212 199.122 197.976 199.17 197.676C199.219 197.372 199.244 197.003 199.244 196.568C199.244 195.211 199.251 193.927 199.266 192.716C198.119 192.694 196.979 192.666 195.847 192.632C195.787 192.632 195.735 192.609 195.69 192.565C195.645 192.52 195.622 192.467 195.622 192.407C195.607 191.545 195.6 190.93 195.6 190.563C195.6 189.959 195.607 189.389 195.622 188.853C196.335 188.819 197.98 188.803 200.559 188.803C201.673 188.803 202.689 188.819 203.607 188.853C203.667 188.853 203.72 188.876 203.765 188.921C203.81 188.966 203.832 189.018 203.832 189.078C203.892 191.897 203.922 194.355 203.922 196.45C203.922 197.181 203.873 197.841 203.776 198.43C203.678 199.014 203.54 199.524 203.36 199.959C203.184 200.394 202.955 200.773 202.674 201.095C202.396 201.417 202.093 201.683 201.763 201.893C201.433 202.1 201.049 202.265 200.61 202.388C200.175 202.516 199.729 202.604 199.272 202.653C198.814 202.705 198.303 202.731 197.737 202.731C197.624 202.731 197.512 202.729 197.399 202.726C197.287 202.722 197.189 202.716 197.107 202.709C197.024 202.705 196.923 202.696 196.803 202.681C196.683 202.666 196.593 202.654 196.533 202.647C196.477 202.643 196.38 202.628 196.241 202.602C196.106 202.579 196.016 202.564 195.971 202.557C195.926 202.549 195.819 202.529 195.65 202.495C195.485 202.465 195.379 202.446 195.33 202.439ZM205.407 195.601C205.407 193.502 205.437 191.252 205.497 188.853C206.209 188.819 207.765 188.803 210.164 188.803C211.862 188.803 213.17 188.819 214.089 188.853C214.149 188.853 214.201 188.876 214.246 188.921C214.291 188.966 214.314 189.018 214.314 189.078C214.329 189.993 214.336 190.641 214.336 191.024C214.336 191.612 214.329 192.163 214.314 192.677C213.68 192.707 212.488 192.722 210.737 192.722C210.423 192.722 210.138 192.72 209.883 192.716C209.875 193.234 209.87 193.627 209.866 193.897C211.208 193.905 212.106 193.918 212.559 193.937C212.619 193.937 212.672 193.959 212.717 194.004C212.762 194.049 212.784 194.102 212.784 194.161C212.796 194.776 212.801 195.34 212.801 195.854C212.801 196.315 212.796 196.816 212.784 197.355H209.866C209.87 197.618 209.875 198.008 209.883 198.525H210.153C211.99 198.525 213.317 198.54 214.134 198.57C214.194 198.57 214.246 198.593 214.291 198.638C214.336 198.683 214.359 198.735 214.359 198.795C214.374 199.71 214.381 200.358 214.381 200.741C214.381 201.329 214.374 201.88 214.359 202.394C213.646 202.428 212.361 202.444 210.501 202.444C210.13 202.444 209.339 202.431 208.128 202.405C206.921 202.383 206.119 202.364 205.722 202.349C205.662 202.349 205.609 202.326 205.564 202.281C205.519 202.236 205.497 202.184 205.497 202.124C205.437 199.305 205.407 197.131 205.407 195.601Z" fill="#9F9C97"/>
<g opacity="0.5">
<path d="M115.874 33.3483H134.862C136.421 33.3483 137.687 34.6137 137.687 36.1732V57.2764C137.687 60.5942 134.994 63.2865 131.677 63.2865H119.06C115.742 63.2865 113.05 60.5942 113.05 57.2764V36.1732C113.05 34.6137 114.315 33.3483 115.874 33.3483Z" fill="#9F9C97" stroke="#5B5A58" stroke-width="1.63441" stroke-miterlimit="10"/>
<path d="M148.661 35.1874L103.136 35.6947L103.01 32.1636L148.531 31.6562L148.661 35.1874Z" fill="#3E3E3D"/>
<path d="M141.717 0L140.878 30.532L123.744 30.6416L122.464 7.95297L120.086 8.67361L121.331 30.656L120.452 30.6618L119.201 8.38824L113.37 9.30201L114.638 30.6992L111.47 30.7194L108.507 2.49053L141.717 0Z" fill="#3E3E3D"/>
<path d="M116.443 40.3586L115.096 38.3668L122.897 36.3202L123.637 38.0929L116.443 40.3586Z" fill="#5B5A58"/>
<path d="M132.887 39.9089L134.343 40.4595L135.802 38.5484L128.134 36.055L127.292 37.7816L128.405 38.2025L132.887 39.9089Z" fill="#5B5A58"/>
<path d="M128.523 39.8052C130.521 43.6448 132.818 40.6383 133.32 39.8946Z" fill="#5B5A58"/>
<path d="M125.955 43.5093L123.827 49.8941C123.652 50.4245 124.055 50.9693 124.614 50.952L128.007 50.8425" stroke="#5B5A58" stroke-width="1.63441" stroke-miterlimit="10"/>
<path d="M133.268 55.5383C132.712 56.1782 132.034 56.4636 131.334 56.6596C130.506 56.8931 129.676 56.919 128.843 56.772C128.264 56.6711 127.702 56.4866 127.166 56.2185C126.563 55.9159 125.998 55.5238 125.485 55.028C125.445 54.9906 125.407 54.956 125.37 54.9127C125.329 54.9531 125.292 54.9906 125.251 55.028C124.738 55.521 124.173 55.9159 123.571 56.2185C123.032 56.4866 122.473 56.6711 121.893 56.772C121.06 56.919 120.23 56.8931 119.403 56.6596C118.702 56.4636 118.025 56.1753 117.469 55.5383C116.892 54.881 116.589 54.0595 116.687 53.0506C116.713 52.7739 116.765 52.5173 116.843 52.2867L117.806 52.4741C117.74 52.9353 117.898 53.4196 118.198 53.6214C118.198 53.6214 118.204 53.6214 118.207 53.6271C118.63 53.9154 119.164 53.999 119.654 53.8606C120.04 53.754 120.291 53.6098 120.671 53.2639C121.233 52.7537 121.798 52.2493 122.447 51.9351C122.992 51.6728 123.562 51.6237 124.139 51.7362C124.49 51.8025 124.926 51.8544 125.298 52.0331C125.321 52.0446 125.344 52.0561 125.367 52.0705C125.387 52.0561 125.41 52.0446 125.433 52.0331C125.805 51.8572 126.24 51.8025 126.592 51.7362C127.171 51.6237 127.739 51.6728 128.284 51.9351C128.933 52.2493 129.5 52.7566 130.06 53.2639C130.44 53.6098 130.691 53.754 131.077 53.8606C131.567 53.999 132.1 53.9154 132.524 53.6271C132.524 53.6271 132.53 53.6271 132.533 53.6214C132.833 53.4196 132.991 52.9353 132.925 52.4741L133.888 52.2867C133.965 52.5173 134.017 52.7739 134.043 53.0506C134.138 54.0595 133.839 54.881 133.262 55.5383H133.268Z" fill="#3E3E3D"/>
<path d="M117.593 39.9004L122.559 39.6409C122.559 39.6409 120.386 44.4519 117.593 39.9004Z" fill="#5B5A58"/>
<path d="M123.173 58.0432H127.373C127.488 58.0432 127.537 57.8213 127.445 57.7175C126.765 56.9651 124.894 55.3394 123.098 57.7233C123.015 57.8328 123.064 58.0432 123.176 58.0432H123.173Z" fill="#5B5A58"/>
<path d="M120.677 63.6815C120.478 67.4115 120.092 70.4065 119.948 74.1365C107.818 73.9088 100.744 70.5881 99.9946 78.6246C99.0462 88.7713 92.6729 76.9412 82.976 72.7212C82.2553 72.4502 81.3012 71.8189 80.9236 71.2222C80.791 71.0147 80.8141 70.983 80.7564 70.9052C80.5892 70.6746 80.5517 70.4238 80.2577 70.4526C80.2692 70.3949 80.2318 70.4526 80.2577 70.4526C79.7821 70.4987 79.5659 70.7899 79.465 71.2626C79.3872 71.62 79.4247 72.185 79.3209 72.5453C79.1768 73.0325 78.9462 73.3525 78.4705 73.5023C77.6836 73.7531 76.7814 73.8079 76.0088 74.0385C75.5015 74.1884 75.1988 74.5487 75.1325 75.0272C75.0864 75.0416 75.0835 75.0416 75.1325 75.0272C75.0432 75.6816 75.294 76.0765 75.9598 76.1255C76.519 76.1658 77.1561 75.8949 77.7355 75.9295C77.9834 75.9439 77.943 76.1687 77.7412 76.3388C77.1936 76.8029 76.4383 77.2526 75.8878 77.7426C75.3372 78.2326 74.9798 78.7486 75.0432 79.5009C74.9884 79.5125 74.9826 79.5154 75.0432 79.5009C75.0893 80.0515 75.49 80.1668 76.0434 79.9852C76.8448 79.72 77.8998 79.2617 78.7127 78.9706C79.0499 78.8495 79.3728 79.1493 79.1739 79.4087C78.975 79.6681 78.5685 79.8987 78.3754 80.1236C77.7268 80.873 77.7903 81.5389 78.4532 82.2653C78.7991 82.6429 78.3149 82.2913 78.4532 82.2653C78.7501 82.591 79.2921 82.6545 79.8974 82.4267C80.938 82.0376 82.1948 81.5908 83.4919 81.3631C83.9099 81.291 83.417 81.3112 84.5643 81.4467C86.879 81.7176 96.0484 102.158 105.993 84.8654L106.803 85.0124C106.803 85.0124 106.832 85.6811 106.823 86.4479C106.57 105.724 107.42 124.731 107.483 144.01C107.483 144.756 107.071 144.834 106.48 145.088C106.103 145.249 105.529 145.122 105.128 145.252C104.35 145.503 104.125 145.927 104.157 146.739C104.166 146.964 104.2 147.227 104.321 147.457C104.566 147.921 104.702 148.195 105.345 148.189C110 148.158 114.575 148.446 119.331 148.181C120.141 148.135 120.311 147.872 120.354 146.561C120.913 130.257 121.343 112.423 121.568 96.361C121.718 85.514 120.982 89.8666 129.815 88.8145C131.028 88.6704 130.991 95.8739 131.109 96.5138C131.138 117.118 131.645 129.975 131.74 148.028C131.743 148.818 134.064 148.751 134.819 148.829C139.094 149.267 143.011 149.204 147.3 149.501C147.943 149.544 148.125 149.262 148.416 148.769C148.58 148.492 148.716 148.077 148.742 147.757C148.799 147.039 148.687 146.644 147.978 146.327C146.885 145.843 145.51 145.656 144.429 145.117C143.89 144.849 143.616 144.727 143.639 144.053C143.377 121.794 143.501 105.009 141.394 83.9747C146.061 101.333 158.813 87.6845 163.27 84.1275C164.172 83.4097 163.921 83.9718 164.342 84.0439C165.636 84.2716 166.896 84.7184 167.936 85.1075C168.545 85.3352 169.084 85.2718 169.381 84.9461C169.519 84.972 169.035 85.3237 169.381 84.9461C170.044 84.2226 170.107 83.5567 169.458 82.8044C169.265 82.5824 168.862 82.3518 168.66 82.0895C168.458 81.8272 168.784 81.5303 169.121 81.6513C169.934 81.9425 170.989 82.4008 171.79 82.666C172.341 82.8476 172.742 82.7323 172.791 82.1817C172.851 82.1961 172.845 82.1933 172.791 82.1817C172.854 81.4294 172.5 80.9134 171.946 80.4234C171.396 79.9333 170.64 79.4837 170.093 79.0196C169.891 78.8495 169.85 78.6246 170.098 78.6102C170.678 78.5756 171.312 78.8466 171.874 78.8063C172.54 78.7572 172.791 78.3594 172.701 77.708C172.75 77.7224 172.747 77.7224 172.701 77.708C172.635 77.2266 172.332 76.8692 171.825 76.7193C171.052 76.4887 170.15 76.4339 169.363 76.1831C168.888 76.0332 168.657 75.7133 168.513 75.2261C168.406 74.8658 168.444 74.3037 168.369 73.9434C168.268 73.4706 168.049 73.1795 167.576 73.1334C167.602 73.1334 167.565 73.0757 167.576 73.1334C167.282 73.1046 167.245 73.3553 167.077 73.5859C167.02 73.6638 167.043 73.6955 166.91 73.903C166.533 74.4997 165.581 75.131 164.858 75.4019C155.161 79.622 150.24 89.0826 149.549 79.9477C148.828 70.4007 145.084 73.0988 128.613 73.8194L128.12 63.8602L120.683 63.6786L120.677 63.6815Z" fill="#9F9C97"/>
<path d="M80.2577 70.4526C80.5517 70.4238 80.5892 70.6746 80.7564 70.9052C80.8141 70.983 80.791 71.0147 80.9236 71.2222C81.3012 71.8189 82.2553 72.4502 82.976 72.7212C92.6729 76.9412 99.0462 88.7713 99.9946 78.6246C100.744 70.5881 107.818 73.9088 119.948 74.1365C120.092 70.4065 120.478 67.4115 120.677 63.6815L120.683 63.6786L128.12 63.8602L128.613 73.8194C145.084 73.0988 148.828 70.4007 149.549 79.9477C150.24 89.0826 155.161 79.622 164.858 75.4019C165.581 75.131 166.533 74.4997 166.91 73.903C167.043 73.6955 167.02 73.6638 167.077 73.5859C167.245 73.3553 167.282 73.1046 167.576 73.1334M80.2577 70.4526C80.2318 70.4526 80.2692 70.3949 80.2577 70.4526ZM80.2577 70.4526C79.7821 70.4987 79.5659 70.7899 79.465 71.2626C79.3872 71.62 79.4247 72.185 79.3209 72.5453C79.1768 73.0325 78.9462 73.3525 78.4705 73.5023C77.6836 73.7531 76.7814 73.8079 76.0088 74.0385C75.5015 74.1884 75.1988 74.5487 75.1325 75.0272M75.1325 75.0272C75.0835 75.0416 75.0864 75.0416 75.1325 75.0272ZM75.1325 75.0272C75.0432 75.6816 75.294 76.0765 75.9598 76.1255C76.519 76.1658 77.1561 75.8949 77.7355 75.9295C77.9834 75.9439 77.943 76.1687 77.7412 76.3388C77.1936 76.8029 76.4383 77.2526 75.8878 77.7426C75.3372 78.2326 74.9798 78.7486 75.0432 79.5009M75.0432 79.5009C74.9826 79.5154 74.9884 79.5125 75.0432 79.5009ZM75.0432 79.5009C75.0893 80.0515 75.49 80.1668 76.0434 79.9852C76.8448 79.72 77.8998 79.2617 78.7127 78.9706C79.0499 78.8495 79.3728 79.1493 79.1739 79.4087C78.975 79.6681 78.5685 79.8987 78.3754 80.1236C77.7268 80.873 77.7903 81.5389 78.4532 82.2653M78.4532 82.2653C78.3149 82.2913 78.7991 82.6429 78.4532 82.2653ZM78.4532 82.2653C78.7501 82.591 79.2921 82.6545 79.8974 82.4267C80.938 82.0376 82.1948 81.5908 83.4919 81.3631C83.9099 81.291 83.417 81.3112 84.5643 81.4467C86.879 81.7176 96.0484 102.158 105.993 84.8654L106.803 85.0124C106.803 85.0124 106.832 85.6811 106.823 86.4479C106.57 105.724 107.42 124.731 107.483 144.01C107.483 144.756 107.071 144.834 106.48 145.088C106.103 145.249 105.529 145.122 105.128 145.252C104.35 145.503 104.125 145.927 104.157 146.739C104.166 146.964 104.2 147.227 104.321 147.457C104.566 147.921 104.702 148.195 105.345 148.189C110 148.158 114.575 148.446 119.331 148.181C120.141 148.135 120.311 147.872 120.354 146.561C120.913 130.257 121.343 112.423 121.568 96.361C121.718 85.514 120.982 89.8666 129.815 88.8145C131.028 88.6704 130.991 95.8739 131.109 96.5138C131.138 117.118 131.645 129.975 131.74 148.028C131.743 148.818 134.064 148.751 134.819 148.829C139.094 149.267 143.011 149.204 147.3 149.501C147.943 149.544 148.125 149.262 148.416 148.769C148.58 148.492 148.716 148.077 148.742 147.757C148.799 147.039 148.687 146.644 147.978 146.327C146.885 145.843 145.51 145.656 144.429 145.117C143.89 144.849 143.616 144.727 143.639 144.053C143.377 121.794 143.501 105.009 141.394 83.9747C146.061 101.333 158.813 87.6845 163.27 84.1275C164.172 83.4097 163.921 83.9718 164.342 84.0439C165.636 84.2716 166.896 84.7184 167.936 85.1075C168.545 85.3352 169.084 85.2718 169.381 84.9461M169.381 84.9461C169.035 85.3237 169.519 84.972 169.381 84.9461ZM169.381 84.9461C170.044 84.2226 170.107 83.5567 169.458 82.8044C169.265 82.5824 168.862 82.3518 168.66 82.0895C168.458 81.8272 168.784 81.5303 169.121 81.6513C169.934 81.9425 170.989 82.4008 171.79 82.666C172.341 82.8476 172.742 82.7323 172.791 82.1817M172.791 82.1817C172.845 82.1933 172.851 82.1961 172.791 82.1817ZM172.791 82.1817C172.854 81.4294 172.5 80.9134 171.946 80.4234C171.396 79.9333 170.64 79.4837 170.093 79.0196C169.891 78.8495 169.85 78.6246 170.098 78.6102C170.678 78.5756 171.312 78.8466 171.874 78.8063C172.54 78.7572 172.791 78.3594 172.701 77.708M172.701 77.708C172.747 77.7224 172.75 77.7224 172.701 77.708ZM172.701 77.708C172.635 77.2266 172.332 76.8692 171.825 76.7193C171.052 76.4887 170.15 76.4339 169.363 76.1831C168.888 76.0332 168.657 75.7133 168.513 75.2261C168.406 74.8658 168.444 74.3037 168.369 73.9434C168.268 73.4706 168.049 73.1795 167.576 73.1334M167.576 73.1334C167.565 73.0757 167.602 73.1334 167.576 73.1334Z" stroke="#5B5A58" stroke-width="1.63441" stroke-miterlimit="10"/>
</g>
</svg>
