<svg width="58" height="114" viewBox="0 0 58 114" fill="none" xmlns="http://www.w3.org/2000/svg">
<path d="M1 69.388C3.18171 71.3452 4.32 72.4329 6.43215 74.0297C8.30083 70.7539 10.1031 67.7628 12.639 64.936C14.7068 66.5739 16.7747 68.2118 18.8426 69.8528C16.4617 72.5499 14.5329 75.2913 12.737 78.4026C16.7969 82.1779 20.6955 86.0038 24.4487 90.1143C26.4596 91.7869 28.42 94.4049 30.9053 95.2998C36.4987 97.3107 38.1017 94.8539 39.9704 89.817C40.4605 88.4954 41.0961 85.7066 41.5451 84.6189C41.9972 83.5312 42.051 83.2751 42.3703 82.5541C42.6897 81.8332 42.8256 81.3842 42.9331 80.7487C43.0375 80.1132 43.2746 80.0499 43.7774 79.8096C43.8153 79.7906 43.8596 79.7812 43.9007 79.778C44.7575 79.7432 45.3804 79.9646 45.6429 80.8214C45.7441 81.1566 45.6397 81.5866 45.7567 81.9091C46.1456 82.9747 46.9709 83.1391 47.9511 82.7407C47.9669 82.7344 47.5969 82.8387 47.5906 82.845C47.2049 83.0221 47.5843 82.8514 47.5906 82.845C48.125 82.5984 48.7542 82.7028 49.3138 82.9905C49.3202 82.9905 49.2474 82.9367 49.3455 83.0095C49.4435 83.0822 49.6585 83.3478 49.5573 83.6071C49.3897 84.0402 49.181 84.5778 49.0324 85.0204C48.9249 85.3366 48.9882 85.618 49.1526 85.871C49.3202 86.1239 49.4941 86.1555 49.7913 86.2662C49.8482 86.2883 50.2972 86.4528 50.3509 86.4844C51.5272 87.1705 50.9517 87.7586 50.5375 88.9096C50.1834 89.8898 49.2538 92.3023 48.9218 93.0928C46.1108 99.7865 42.7561 103.853 35.8916 105.674C34.1051 106.148 31.6609 105.946 29.8776 105.747C29.1883 105.671 29.5551 105.699 28.733 105.595C27.7149 105.465 26.7157 105.206 25.7703 104.814C25.6027 104.744 25.4478 104.675 25.3087 104.605C20.8346 102.351 18.5422 100.058 16.253 95.7266C16.0475 95.3345 15.7218 95.0595 15.3993 94.9235C15.0736 94.7875 14.7859 94.8603 14.6183 95.0848C10.5142 100.526 5.23378 107.207 1.08853 113" fill="#FFD4A6"/>
<path d="M1 69.388C3.18171 71.3452 4.32 72.4329 6.43214 74.0297C8.30083 70.7539 10.1031 67.7628 12.639 64.936C14.7068 66.5739 16.7747 68.2118 18.8426 69.8528C16.4617 72.5499 14.5329 75.2913 12.737 78.4026C16.7969 82.1779 20.6955 86.0038 24.4487 90.1143C26.4596 91.7869 28.42 94.4049 30.9053 95.2998C36.4987 97.3107 38.1017 94.8539 39.9704 89.817C40.4605 88.4954 41.0961 85.7066 41.5451 84.6189C41.9972 83.5312 42.051 83.2751 42.3703 82.5541C42.6897 81.8332 42.8256 81.3842 42.9331 80.7487C43.0375 80.1132 43.2746 80.0499 43.7774 79.8096C43.8153 79.7906 43.8596 79.7812 43.9007 79.778C44.7575 79.7432 45.3804 79.9646 45.6429 80.8214C45.7441 81.1566 45.6397 81.5866 45.7567 81.9091C46.1456 82.9747 46.9709 83.1391 47.9511 82.7407C47.9669 82.7344 47.5969 82.8387 47.5906 82.845M47.5906 82.845C47.2049 83.0221 47.5843 82.8514 47.5906 82.845ZM47.5906 82.845C48.125 82.5984 48.7542 82.7028 49.3138 82.9905C49.3202 82.9905 49.2474 82.9367 49.3455 83.0095C49.4435 83.0822 49.6585 83.3478 49.5573 83.6071C49.3897 84.0402 49.181 84.5778 49.0324 85.0204C48.9249 85.3366 48.9882 85.618 49.1526 85.871C49.3202 86.1239 49.4941 86.1555 49.7913 86.2662C49.8482 86.2883 50.2972 86.4528 50.3509 86.4844C51.5272 87.1705 50.9517 87.7586 50.5375 88.9096C50.1834 89.8898 49.2538 92.3023 48.9218 93.0928C46.1108 99.7865 42.7561 103.853 35.8916 105.674C34.1051 106.148 31.6609 105.946 29.8776 105.747C29.1883 105.671 29.5551 105.699 28.733 105.595C27.7149 105.465 26.7157 105.206 25.7703 104.814C25.6027 104.744 25.4478 104.675 25.3087 104.605C20.8346 102.351 18.5422 100.058 16.253 95.7266C16.0475 95.3345 15.7218 95.0595 15.3993 94.9235C15.0736 94.7875 14.7859 94.8603 14.6183 95.0848C10.5142 100.526 5.23378 107.207 1.08853 113" stroke="#D56048" stroke-width="1.7928" stroke-miterlimit="10"/>
<path d="M18.1073 34.5781L37.6899 41.6707C39.2982 42.2532 40.1306 44.031 39.5481 45.6394L31.6651 67.4041C30.4257 70.8259 26.6433 72.5969 23.2215 71.3575L10.2091 66.6445C6.78726 65.4052 5.01626 61.6228 6.25562 58.2009L14.1386 36.4363C14.7211 34.8279 16.499 33.9955 18.1073 34.5781Z" fill="#FFD4A6" stroke="#D56048" stroke-width="1.7928" stroke-miterlimit="10"/>
<path d="M51.2393 48.7186L4.09857 32.2388L5.28428 28.5488L52.4251 45.0287L51.2393 48.7186Z" fill="#25292C"/>
<path d="M57.2185 9.83351L44.9503 41.0098L27.2374 34.724L34.3896 10.8453L31.6703 10.703L24.7426 33.8387L23.8351 33.5161L30.864 10.077L24.5086 8.84067L17.8244 31.385L14.5486 30.2214L22.036 0L57.2185 9.83351Z" fill="#25292C"/>
<path d="M16.1802 40.5862L16.1043 37.9492L24.5308 40.64L24.1735 42.7174" fill="#D56048"/>
<path d="M33.8584 47.1092L35.4046 47.8364L37.1594 45.8665L28.9859 42.4896L27.9172 44.3077L29.0997 44.8642" fill="#D56048"/>
<path d="M28.5179 46.6727C29.144 51.3808 32.6379 49.1359 33.4315 48.5572L28.5179 46.6727Z" fill="#D56048"/>
<path d="M24.7141 48.8229L20.1357 54.6123C19.7563 55.0929 19.9713 55.8075 20.553 55.9972L24.0944 57.1513" stroke="#D56048" stroke-width="1.7928" stroke-miterlimit="10"/>
<path d="M27.7622 63.9589C26.9496 64.4111 26.1433 64.4522 25.3465 64.3921C24.4043 64.3225 23.5411 64.0411 22.7348 63.5763C22.1751 63.257 21.6661 62.8554 21.2108 62.378C20.7017 61.8436 20.2685 61.2239 19.9207 60.5251C19.8954 60.4745 19.867 60.4208 19.8448 60.3639C19.7911 60.3891 19.7342 60.4144 19.6804 60.4366C18.9658 60.7528 18.2386 60.9488 17.5019 61.0373C16.8473 61.1132 16.1991 61.0943 15.5636 60.9804C14.6498 60.8223 13.8024 60.484 13.0372 59.9338C12.3891 59.469 11.7946 58.922 11.4595 58.0525C11.1116 57.1608 11.1053 56.1996 11.5828 55.1941C11.7124 54.9191 11.861 54.6756 12.0286 54.4637L12.9519 55.0171C12.7116 55.4692 12.6958 56.0257 12.9266 56.3482C12.9266 56.3514 12.9297 56.3514 12.9329 56.3577C13.2617 56.813 13.7803 57.0976 14.3368 57.1387C14.7763 57.1735 15.0862 57.1166 15.611 56.9016C16.3794 56.5854 17.154 56.2755 17.9414 56.1933C18.6022 56.1269 19.2061 56.2882 19.7626 56.6202C20.1009 56.8194 20.531 57.0375 20.8471 57.3569C20.8661 57.3759 20.8851 57.398 20.9072 57.4201C20.9357 57.4106 20.961 57.4106 20.9894 57.4075C21.4384 57.3632 21.9095 57.4707 22.2953 57.534C22.934 57.6351 23.5031 57.8976 23.9679 58.3719C24.5213 58.9378 24.9165 59.6714 25.3023 60.4081C25.5679 60.9077 25.7702 61.1512 26.1307 61.4041C26.586 61.7298 27.1646 61.8436 27.7085 61.7045C27.7116 61.7045 27.7148 61.7045 27.718 61.7045C28.1005 61.6065 28.4452 61.167 28.5527 60.6674L29.6151 60.835C29.6088 61.1037 29.5677 61.3883 29.4918 61.6792C29.2135 62.7574 28.597 63.491 27.7559 63.9526L27.7622 63.9589Z" fill="#25292C"/>
<path d="M16.1391 61.6381C16.3636 63.3329 17.4039 68.3761 21.5618 63.3518C21.7009 63.1843 21.6282 62.925 21.4195 62.8586L16.5628 61.284C16.332 61.2081 16.1043 61.401 16.1359 61.6413L16.1391 61.6381Z" fill="#D56048"/>
<path d="M17.2332 42.7805L22.4503 44.3678C22.4503 44.3678 18.4125 48.5162 17.2332 42.7805Z" fill="#D56048"/>
</svg>
