<svg width="30" height="30" viewBox="0 0 30 30" fill="none" xmlns="http://www.w3.org/2000/svg">
<circle cx="15" cy="15" r="14.3478" fill="#D56048" stroke="#D56048" stroke-width="1.30435"/>
<path d="M11.9231 23.6805C11.3117 23.6805 10.8532 23.4607 10.4424 22.9735L5.51285 17.0027C5.16894 16.611 5.04474 16.2575 5.04474 15.8563C5.04474 14.9583 5.71347 14.2991 6.64015 14.2991C7.17513 14.2991 7.55727 14.4901 7.91074 14.9105L11.8754 19.8305L19.69 7.50666C20.0721 6.9048 20.4638 6.67552 21.0943 6.67552C22.0115 6.67552 22.6802 7.32515 22.6802 8.22316C22.6802 8.55753 22.5751 8.911 22.3267 9.29314L13.423 22.9066C13.0791 23.4321 12.5728 23.6805 11.9231 23.6805Z" fill="#ECB268"/>
</svg>
