<svg width="244" height="393" viewBox="0 0 244 393" fill="none" xmlns="http://www.w3.org/2000/svg">
<g filter="url(#filter0_f_10_41)">
<path d="M9 383L235.5 381" stroke="#ABABAB" stroke-width="4"/>
</g>
<path d="M92.2473 84.9263H140.602C144.573 84.9263 147.796 88.1489 147.796 92.1203V145.863C147.796 154.312 140.939 161.168 132.49 161.168H100.359C91.9097 161.168 85.0533 154.312 85.0533 145.863V92.1203C85.0533 88.1489 88.2759 84.9263 92.2473 84.9263Z" fill="#FFD4A6" stroke="#D56048" stroke-width="5.67" stroke-miterlimit="10"/>
<path d="M175.742 89.6099L59.8081 90.9019L59.4851 81.9094L175.412 80.6174L175.742 89.6099Z" fill="#818181"/>
<path d="M158.058 0L155.922 77.7543L112.288 78.0333L109.029 20.2534L102.972 22.0886L106.144 78.07L103.905 78.0847L100.719 21.3619L85.8683 23.6889L89.0982 78.1801L81.0306 78.2315L73.4842 6.3425L158.058 0Z" fill="#818181"/>
<path d="M92.7834 99.5712L90.5371 93.8747L111.055 93.0818L111.921 97.8974" fill="#D56048"/>
<path d="M136.535 99.8358L140.477 100.203L142.76 94.521L122.249 93.6107L121.354 98.419L124.371 98.6979" fill="#D56048"/>
<path d="M124.525 103.103C129.612 112.881 135.463 105.224 136.74 103.33Z" fill="#D56048"/>
<path d="M117.918 110.803L112.501 127.063C112.053 128.413 113.081 129.801 114.505 129.757L123.145 129.478" stroke="#D56048" stroke-width="5.67" stroke-miterlimit="10"/>
<path d="M136.542 141.436C135.125 143.066 133.4 143.792 131.616 144.292C129.51 144.886 127.395 144.952 125.274 144.578C123.798 144.321 122.367 143.851 121.002 143.168C119.467 142.398 118.029 141.399 116.722 140.137C116.619 140.041 116.524 139.953 116.428 139.843C116.325 139.946 116.23 140.041 116.127 140.137C114.821 141.392 113.382 142.398 111.848 143.168C110.475 143.851 109.051 144.321 107.575 144.578C105.454 144.952 103.339 144.886 101.233 144.292C99.4488 143.792 97.7237 143.058 96.3069 141.436C94.8387 139.762 94.068 137.67 94.3175 135.101C94.3836 134.396 94.5157 133.743 94.714 133.156L97.1658 133.633C96.997 134.807 97.4007 136.04 98.1642 136.554C98.1642 136.554 98.1788 136.554 98.1862 136.569C99.2653 137.303 100.623 137.516 101.871 137.164C102.855 136.892 103.494 136.525 104.463 135.644C105.894 134.345 107.333 133.06 108.985 132.26C110.372 131.592 111.825 131.467 113.294 131.753C114.189 131.922 115.298 132.054 116.245 132.51C116.303 132.539 116.362 132.568 116.421 132.605C116.472 132.568 116.531 132.539 116.59 132.51C117.537 132.062 118.645 131.922 119.541 131.753C121.016 131.467 122.462 131.592 123.85 132.26C125.501 133.06 126.948 134.352 128.372 135.644C129.341 136.525 129.979 136.892 130.963 137.164C132.211 137.516 133.569 137.303 134.648 136.569C134.648 136.569 134.663 136.569 134.67 136.554C135.434 136.04 135.837 134.807 135.669 133.633L138.12 133.156C138.319 133.743 138.451 134.396 138.517 135.101C138.759 137.67 137.996 139.762 136.527 141.436H136.542Z" fill="#818181"/>
<path d="M109.337 145.555C111.165 149.078 117.419 159.267 122.528 145.004C122.697 144.527 122.338 144.02 121.831 144.035L109.983 144.439C109.418 144.461 109.073 145.055 109.33 145.555H109.337Z" fill="#D56048"/>
<path d="M96.8134 103.528L109.462 102.867C109.462 102.867 103.927 115.119 96.8134 103.528Z" fill="#D56048"/>
<path d="M122.903 161.866L122.917 190.113L122.991 188.006L150.526 188.19C150.695 188.19 150.857 188.212 151.018 188.241C153.991 188.799 182.584 194.158 182.584 216.783C182.584 238.24 187.165 288.716 187.429 298.67V299.022L187.488 302.773C187.502 303.427 188.684 305.321 189.301 305.526L190.094 305.989C190.732 306.202 191.202 306.752 191.32 307.413C191.51 308.485 190.666 309.461 189.58 309.439L186.269 309.358C185.153 309.329 184.214 310.188 184.14 311.303L183.663 318.703C183.582 319.914 182.643 320.898 181.431 321.03C179.787 321.206 178.356 319.9 178.385 318.248L178.48 312.669C178.488 312.074 177.688 311.876 177.416 312.405L174.45 318.233C173.672 319.76 171.984 320.604 170.295 320.303C169.062 320.083 168.313 318.813 168.724 317.624L171.088 310.738C171.33 310.026 170.42 309.49 169.921 310.063L168.159 312.067C166.676 313.755 164.048 313.748 162.565 312.06C161.897 311.296 161.765 310.21 162.228 309.307L165.392 303.14C165.649 302.641 165.744 302.083 165.663 301.533C164.43 292.79 156.172 221.136 155.731 216.217L162.617 366.808C162.676 368.019 163.512 369.054 164.687 369.362L174.113 371.843C175.64 372.247 176.528 373.825 176.073 375.33L175.265 378.017C174.905 379.214 173.797 380.029 172.549 379.999L139.214 379.346C137.746 379.316 136.549 378.142 136.491 376.666L131.44 241.653C131.396 240.472 130.611 239.451 129.488 239.099C123.85 237.344 107.48 232.778 107.48 238.959C107.48 245.786 104.36 356.149 103.824 375.059C103.78 376.578 102.517 377.782 100.99 377.753L65.1597 377.1C63.7502 377.077 62.583 375.998 62.4435 374.596L62.2233 372.409C62.0692 370.86 63.2143 369.487 64.7633 369.355L68.3896 369.054C69.8138 368.936 70.9149 367.755 70.9369 366.323L73.1025 218.427C73.1245 216.959 72.0087 215.725 70.5478 215.608L27.1047 212.106C26.9285 212.092 26.7523 212.062 26.5835 212.011C24.3078 211.365 8.57635 206.16 13.4213 187.456C18.0901 169.463 28.103 148.505 30.2025 144.204C30.4594 143.69 30.5402 143.102 30.4448 142.53L29.6446 137.729C29.2115 135.145 32.2726 133.449 34.2326 135.189L34.585 135.505C35.275 136.114 36.2147 136.341 37.1102 136.121C37.6755 135.974 38.1747 135.666 38.5417 135.24C38.9088 134.815 39.1437 134.286 39.2024 133.699L39.5768 129.955C39.7236 128.487 40.9862 127.393 42.4617 127.459L43.4748 127.503C44.987 127.569 46.1689 128.839 46.1322 130.351L46.0808 132.297C46.022 134.682 48.7969 136.033 50.6394 134.506L52.8564 132.671C54.2511 131.511 56.3653 131.981 57.1434 133.625L57.3123 133.97C57.7894 134.983 57.6133 136.187 56.8645 137.024L53.7887 140.438C53.3556 140.922 53.106 141.539 53.0766 142.185L52.9592 145.106C52.8931 146.619 54.0529 147.903 55.5578 147.999L62.7812 148.461C64.4256 148.564 65.6148 150.069 65.3432 151.691L65.123 153.013C64.9027 154.341 63.7722 155.318 62.4289 155.34L51.4836 155.538C50.3091 155.56 49.274 156.316 48.8997 157.432L40.0319 183.815C39.4226 185.606 40.7513 187.471 42.6453 187.478L104.375 187.889L104.352 189.93L104.492 161.785L122.903 161.873V161.866Z" fill="#FFD4A6" stroke="#D56048" stroke-width="5.67" stroke-miterlimit="10"/>
<defs>
<filter id="filter0_f_10_41" x="0.982338" y="371" width="242.535" height="21.9998" filterUnits="userSpaceOnUse" color-interpolation-filters="sRGB">
<feFlood flood-opacity="0" result="BackgroundImageFix"/>
<feBlend mode="normal" in="SourceGraphic" in2="BackgroundImageFix" result="shape"/>
<feGaussianBlur stdDeviation="4" result="effect1_foregroundBlur_10_41"/>
</filter>
</defs>
</svg>
