<svg width="244" height="393" viewBox="0 0 244 393" fill="none" xmlns="http://www.w3.org/2000/svg">
<g filter="url(#filter0_f_1_2)">
<path d="M8.5 383L235 381" stroke="#ABABAB" stroke-width="4"/>
</g>
<path d="M91.7473 84.9263H140.102C144.073 84.9263 147.296 88.1489 147.296 92.1203V145.863C147.296 154.312 140.439 161.168 131.99 161.168H99.859C91.4097 161.168 84.5533 154.312 84.5533 145.863V92.1203C84.5533 88.1489 87.7759 84.9263 91.7473 84.9263Z" fill="#FFD4A6" stroke="#D56048" stroke-width="5.67" stroke-miterlimit="10"/>
<path d="M175.242 89.6099L59.3081 90.9019L58.9851 81.9093L174.912 80.6173L175.242 89.6099Z" fill="#25292C"/>
<path d="M157.558 0L155.422 77.7543L111.788 78.0333L108.529 20.2534L102.472 22.0886L105.644 78.07L103.405 78.0847L100.219 21.3619L85.3683 23.6889L88.5982 78.1801L80.5306 78.2315L72.9842 6.3425L157.558 0Z" fill="#25292C"/>
<path d="M92.2834 99.5711L90.0371 93.8746L110.555 93.0818L111.421 97.8974" fill="#D56048"/>
<path d="M136.035 99.8358L139.977 100.203L142.26 94.521L121.749 93.6107L120.854 98.419L123.871 98.698" fill="#D56048"/>
<path d="M124.025 103.103C129.112 112.881 134.963 105.224 136.24 103.33L124.025 103.103Z" fill="#D56048"/>
<path d="M117.418 110.803L112.001 127.063C111.553 128.413 112.581 129.801 114.005 129.757L122.645 129.478" stroke="#D56048" stroke-width="5.67" stroke-miterlimit="10"/>
<path d="M136.042 141.436C134.625 143.066 132.9 143.792 131.116 144.292C129.01 144.886 126.895 144.952 124.774 144.578C123.298 144.321 121.867 143.851 120.502 143.168C118.967 142.398 117.529 141.399 116.222 140.137C116.119 140.041 116.024 139.953 115.928 139.843C115.825 139.946 115.73 140.041 115.627 140.137C114.321 141.392 112.882 142.398 111.348 143.168C109.975 143.851 108.551 144.321 107.075 144.578C104.954 144.952 102.839 144.886 100.733 144.292C98.9488 143.792 97.2237 143.058 95.8069 141.436C94.3387 139.762 93.568 137.67 93.8175 135.101C93.8836 134.396 94.0157 133.743 94.214 133.156L96.6658 133.633C96.497 134.807 96.9007 136.04 97.6642 136.554C97.6642 136.554 97.6788 136.554 97.6862 136.569C98.7653 137.303 100.123 137.516 101.371 137.164C102.355 136.892 102.994 136.525 103.963 135.644C105.394 134.345 106.833 133.06 108.485 132.26C109.872 131.592 111.325 131.467 112.794 131.753C113.689 131.922 114.798 132.054 115.745 132.51C115.803 132.539 115.862 132.568 115.921 132.605C115.972 132.568 116.031 132.539 116.09 132.51C117.037 132.062 118.145 131.922 119.041 131.753C120.516 131.467 121.962 131.592 123.35 132.26C125.001 133.06 126.448 134.352 127.872 135.644C128.841 136.525 129.479 136.892 130.463 137.164C131.711 137.516 133.069 137.303 134.148 136.569C134.148 136.569 134.163 136.569 134.17 136.554C134.934 136.04 135.337 134.807 135.169 133.633L137.62 133.156C137.819 133.743 137.951 134.396 138.017 135.101C138.259 137.67 137.496 139.762 136.027 141.436H136.042Z" fill="#25292C"/>
<path d="M108.837 145.555C110.665 149.078 116.919 159.267 122.028 145.004C122.197 144.527 121.838 144.02 121.331 144.035L109.483 144.439C108.918 144.461 108.573 145.055 108.83 145.555H108.837Z" fill="#D56048"/>
<path d="M96.3134 103.528L108.962 102.867C108.962 102.867 103.427 115.119 96.3134 103.528Z" fill="#D56048"/>
<path d="M122.403 161.866L122.417 190.113L122.491 188.006L150.026 188.19C150.195 188.19 150.357 188.212 150.518 188.241C153.491 188.799 182.084 194.158 182.084 216.783C182.084 238.24 186.665 288.716 186.929 298.67V299.022L186.988 302.773C187.002 303.427 188.184 305.321 188.801 305.526L189.594 305.989C190.232 306.202 190.702 306.752 190.82 307.413C191.01 308.485 190.166 309.461 189.08 309.439L185.769 309.358C184.653 309.329 183.714 310.188 183.64 311.303L183.163 318.703C183.082 319.914 182.143 320.898 180.931 321.03C179.287 321.206 177.856 319.9 177.885 318.248L177.98 312.669C177.988 312.074 177.188 311.876 176.916 312.405L173.95 318.233C173.172 319.76 171.484 320.604 169.795 320.303C168.562 320.083 167.813 318.813 168.224 317.624L170.588 310.738C170.83 310.026 169.92 309.49 169.421 310.063L167.659 312.067C166.176 313.755 163.548 313.748 162.065 312.06C161.397 311.296 161.265 310.21 161.728 309.307L164.892 303.14C165.149 302.641 165.244 302.083 165.163 301.533C163.93 292.79 155.672 221.136 155.231 216.217L162.117 366.808C162.176 368.019 163.012 369.054 164.187 369.362L173.613 371.843C175.14 372.247 176.028 373.825 175.573 375.33L174.765 378.017C174.405 379.214 173.297 380.029 172.049 379.999L138.714 379.346C137.246 379.316 136.049 378.142 135.991 376.666L130.94 241.653C130.896 240.472 130.111 239.451 128.988 239.099C123.35 237.344 106.98 232.778 106.98 238.959C106.98 245.786 103.86 356.149 103.324 375.059C103.28 376.578 102.017 377.782 100.49 377.753L64.6597 377.1C63.2502 377.077 62.083 375.998 61.9435 374.596L61.7233 372.409C61.5692 370.86 62.7143 369.487 64.2633 369.355L67.8896 369.054C69.3138 368.936 70.4149 367.755 70.4369 366.323L72.6025 218.427C72.6245 216.959 71.5087 215.725 70.0478 215.608L26.6047 212.106C26.4285 212.092 26.2523 212.062 26.0835 212.011C23.8078 211.365 8.07635 206.16 12.9213 187.456C17.5901 169.463 27.603 148.505 29.7025 144.204C29.9594 143.69 30.0402 143.102 29.9448 142.53L29.1446 137.729C28.7115 135.145 31.7726 133.449 33.7326 135.189L34.085 135.505C34.775 136.114 35.7147 136.341 36.6102 136.121C37.1755 135.974 37.6747 135.666 38.0417 135.24C38.4088 134.815 38.6437 134.286 38.7024 133.699L39.0768 129.955C39.2236 128.487 40.4862 127.393 41.9617 127.459L42.9748 127.503C44.487 127.569 45.6689 128.839 45.6322 130.351L45.5808 132.297C45.522 134.682 48.2969 136.033 50.1394 134.506L52.3564 132.671C53.7511 131.511 55.8653 131.981 56.6434 133.625L56.8123 133.97C57.2894 134.983 57.1133 136.187 56.3645 137.024L53.2887 140.438C52.8556 140.922 52.606 141.539 52.5766 142.185L52.4592 145.106C52.3931 146.619 53.5529 147.903 55.0578 147.999L62.2812 148.461C63.9256 148.564 65.1148 150.069 64.8432 151.691L64.623 153.013C64.4027 154.341 63.2722 155.318 61.9289 155.34L50.9836 155.538C49.8091 155.56 48.774 156.316 48.3997 157.432L39.5319 183.815C38.9226 185.606 40.2513 187.471 42.1453 187.478L103.875 187.889L103.852 189.93L103.992 161.785L122.403 161.873V161.866Z" fill="#FFD4A6" stroke="#D56048" stroke-width="5.67" stroke-miterlimit="10"/>
<defs>
<filter id="filter0_f_1_2" x="0.482338" y="371" width="242.535" height="21.9998" filterUnits="userSpaceOnUse" color-interpolation-filters="sRGB">
<feFlood flood-opacity="0" result="BackgroundImageFix"/>
<feBlend mode="normal" in="SourceGraphic" in2="BackgroundImageFix" result="shape"/>
<feGaussianBlur stdDeviation="4" result="effect1_foregroundBlur_1_2"/>
</filter>
</defs>
</svg>
