<svg width="263" height="393" viewBox="0 0 263 393" fill="none" xmlns="http://www.w3.org/2000/svg">
<g filter="url(#filter0_f_10_112)">
<path d="M8 383L254.5 382" stroke="#ABABAB" stroke-width="4"/>
</g>
<path d="M128.042 235.394C126.5 235.5 122.555 236 121.909 240.622C115.042 289.739 98.3361 334.569 79.5496 380.87C78.0423 384.59 77.8952 383.237 76.0423 382.539C65.1454 378.451 54.2044 372.282 43.4399 367.715C41.7487 366.995 41.5649 365.796 41.6017 364.274C41.6164 363.679 41.859 362.76 42.0281 362.186C42.5061 360.546 43.6605 360.017 45.3296 360.37C46.3075 360.576 47.756 361.37 48.7486 361.488C50.3074 361.679 51.2559 361.745 51.9692 359.943C70.3365 313.584 89.7995 269.555 90.8509 218.497C90.895 216.468 89.9612 215.865 88.248 216.004C75.5056 217.026 63.4322 222.357 51.3001 226.776C51.1015 226.85 51.5795 227.012 50.7045 226.997C38.7855 226.747 32.4106 221.078 29.6827 207.571C27.0578 194.586 23.124 175.409 18.0432 162.138C17.4329 160.542 17.5064 160.998 16.9256 160.388C15.705 159.108 14.0138 158.101 13.0433 157.042C10.9551 154.777 12.2271 152.52 14.8668 152.101C14.9844 152.079 15.2197 152.13 15.3447 152.13C16.3153 152.094 17.0873 151.792 17.6388 150.976C17.9035 150.586 18.0579 150.116 18.0947 149.638C18.1535 148.844 17.9623 148.358 17.58 147.667C17.0506 146.711 16.1903 145.483 15.6976 144.513C14.9256 142.991 15.3226 141.77 16.5065 140.667C16.7123 140.476 17.102 140.204 17.3373 140.064C18.7638 139.226 20.0579 139.358 21.1902 140.601C21.5505 140.998 21.9328 141.763 22.3078 142.138C24.1534 143.976 26.374 143.329 27.3151 140.939C27.6019 140.219 27.7563 138.881 28.0283 138.131C28.7269 136.204 30.2121 135.491 32.1312 136.131C32.2268 136.16 32.3297 136.211 32.4106 136.27C33.44 136.984 33.94 137.66 33.918 139.042C33.9033 140.425 33.6753 142.292 33.6606 143.726C33.6533 144.535 33.7415 144.947 34.2121 145.638C34.69 146.329 35.5209 147.513 36.087 148.13C37.2488 149.402 38.5944 149.925 40.1311 148.961C41.9767 147.807 44.0134 145.63 45.7781 144.528C47.5428 143.425 48.7486 144.02 49.8368 145.447C50.0574 145.741 50.3368 146.3 50.4692 146.66C50.9839 148.101 51.0942 149.248 49.9545 150.527C47.6236 153.13 44.6016 155.704 42.1531 158.248C41.1017 159.336 40.9179 160.101 41.6458 161.748C45.9619 171.49 50.256 183.145 51.9324 193.475C52.3883 196.284 53.7706 197.255 56.2265 196.314C76.2482 188.667 97.7185 186.556 119.13 187.975C118.961 179.373 119.328 170.836 119.203 162.255C122.328 162.255 125.446 162.292 128.564 162.285C131.681 162.277 134.821 162.241 137.938 162.233C138.247 171.02 138.799 179.74 139.343 188.556C162.276 188.556 183.908 190.064 205.224 198.938C207.842 200.027 208.768 199.284 209.57 196.299C212.511 185.328 217.231 172.307 221.665 161.593C222.415 159.777 222.062 159.182 221.055 158.042C218.695 155.38 215.526 152.799 213.231 150.145C212.106 148.844 212.011 147.932 212.511 146.454C212.636 146.086 212.908 145.55 213.121 145.255C214.187 143.844 215.356 143.233 217.136 144.3C218.915 145.366 221.32 147.116 223.202 148.233C224.768 149.16 226.04 148.711 227.143 147.358C227.68 146.704 228.393 145.579 228.849 144.888C229.305 144.197 229.386 143.778 229.356 142.983C229.312 141.572 229.033 139.748 228.974 138.373C228.915 137.006 229.422 136.322 230.437 135.594C230.525 135.535 230.621 135.476 230.724 135.439C232.591 134.756 234.128 135.344 234.834 137.278C235.113 138.035 235.238 139.336 235.518 140.079C236.466 142.542 238.805 142.858 240.584 141.028C240.944 140.653 241.341 139.873 241.702 139.469C242.812 138.211 244.113 137.998 245.569 138.785C245.812 138.917 246.202 139.175 246.407 139.351C247.613 140.41 248.003 141.608 247.246 143.123C246.76 144.094 245.878 145.358 245.371 146.314C245.047 146.917 244.937 147.358 244.981 147.969C245.032 148.579 245.216 149.101 245.547 149.608C246.069 150.41 246.812 150.763 247.775 150.8C247.9 150.8 248.128 150.741 248.253 150.755C251.062 151.064 252.099 153.373 250.143 155.777C249.231 156.895 247.562 158.02 246.4 159.417C245.849 160.086 245.974 159.483 245.4 161.27C240.584 176.123 235.488 198.475 231.591 212.35C227.54 226.784 220.79 230.938 208.401 230.622C207.489 230.6 208.011 230.445 207.82 230.357C195.916 224.968 184.842 218.438 171.762 217.629C170.004 217.519 169.262 218.137 169.32 220.078C170.828 269.011 169.387 318.121 171.644 367.26C171.732 369.164 172.725 369.524 174.225 369.914C175.181 370.164 176.747 369.951 177.732 370.12C179.408 370.407 180.283 371.37 180.232 373.061C180.217 373.657 180.158 374.634 179.997 375.193C179.578 376.62 179.063 377.701 177.254 377.759C165.747 378.142 153.512 379.531 142.049 379.399C140.093 379.377 139.461 380.12 139.225 376.598C136.284 332.753 138.38 283.018 134.468 240.416C133.5 235 128.034 235.394 128.034 235.394H128.042Z" fill="#FFD4A6" stroke="#D56048" stroke-width="4.16906" stroke-miterlimit="10"/>
<path d="M114.446 160.542C123.358 161.329 136.813 161.402 145.879 160.968C155.416 160.513 161.159 156.152 161.769 145.792C162.732 129.322 162.541 109.271 162.379 92.5356C162.328 87.5871 160.034 85.3298 155.078 85.2195C139.997 84.8887 122.269 84.8592 107.189 85.0945C102.233 85.1754 99.961 87.4548 99.9022 92.3518C99.6963 108.91 99.3213 128.932 99.6448 145.138C99.8507 155.336 105.079 159.711 114.453 160.542H114.446Z" fill="#FFD4A6" stroke="#D56048" stroke-width="4.16906" stroke-miterlimit="10"/>
<path d="M71.7924 89.4911C110.476 90.0205 149.159 90.6161 187.842 91.072C187.93 88.0941 188.019 85.1162 188.107 82.1383C149.424 81.5501 110.748 81.0354 72.0644 80.5648C71.9762 83.5427 71.8879 86.5132 71.7997 89.4911H71.7924Z" fill="#25292C"/>
<path d="M89.226 -6.10352e-05C90.1156 25.9113 90.895 51.83 91.5789 77.7488C106.145 77.8517 120.703 77.9841 135.269 78.1017C136.38 58.7638 137.527 39.4332 138.497 20.0879C140.519 20.6982 142.549 21.3084 144.571 21.9187C143.585 40.6685 142.505 59.4108 141.416 78.1532C142.166 78.1532 142.909 78.1679 143.659 78.1752C144.747 59.1829 145.843 40.1905 146.821 21.1982C151.776 21.9702 156.732 22.757 161.695 23.5364C160.681 41.8008 159.585 60.0579 158.475 78.315C161.166 78.3444 163.85 78.3738 166.541 78.4032C169.122 54.33 171.592 30.2495 174.019 6.16161C145.762 4.08811 117.49 2.02932 89.226 -6.10352e-05Z" fill="#25292C"/>
<path d="M154.776 99.7412C155.534 97.8368 156.284 95.9324 157.041 94.028C150.188 93.756 143.335 93.4839 136.49 93.1971C136.196 94.8001 135.909 96.4103 135.615 98.0133" fill="#D56048"/>
<path d="M110.983 99.8588C109.667 99.9764 108.351 100.094 107.034 100.212C106.277 98.3147 105.52 96.4177 104.762 94.5206C111.601 94.2486 118.439 93.9692 125.284 93.6898C125.578 95.2927 125.88 96.903 126.174 98.5059C125.167 98.5941 124.159 98.6823 123.152 98.7779" fill="#D56048"/>
<path d="M122.983 103.182C118.909 109.028 114.954 109.042 110.762 103.359Z" fill="#D56048"/>
<path d="M129.608 110.917C131.262 116.197 133.402 121.895 134.924 127.079C135.431 128.8 134.593 129.682 132.916 129.763C130.387 129.895 127.042 129.461 124.387 129.513" stroke="#D56048" stroke-width="4.16906" stroke-miterlimit="10"/>
<path d="M110.652 141.196C112.056 142.873 113.645 143.542 115.52 144.093C117.733 144.748 119.63 144.755 121.858 144.446C123.402 144.233 124.696 143.762 126.196 143.086C127.696 142.402 129.269 141.255 130.578 140.16C130.674 140.079 130.799 139.895 130.887 139.895C130.975 139.895 131.078 140.086 131.166 140.167C132.365 141.299 133.806 142.483 135.247 143.196C136.688 143.909 137.916 144.402 139.446 144.652C141.644 145.005 143.534 145.049 145.762 144.409C147.644 143.873 149.254 143.174 150.754 141.557C152.254 139.939 153.048 137.645 152.96 135.299C152.938 134.66 152.798 133.961 152.629 133.351C151.798 133.505 150.968 133.652 150.137 133.807C150.181 134.954 149.938 135.976 149.026 136.726C149.019 136.733 149.012 136.733 149.004 136.74C147.806 137.373 146.688 137.674 145.343 137.292C144.284 136.99 143.696 136.527 142.821 135.741C141.527 134.586 140.152 133.167 138.497 132.358C137.108 131.682 135.747 131.594 134.196 131.814C133.255 131.946 132.181 132.174 131.269 132.542C131.211 132.564 131.144 132.63 131.093 132.623C131.041 132.616 130.975 132.557 130.916 132.535C130.005 132.16 128.924 131.924 127.983 131.777C126.417 131.542 125.078 131.616 123.659 132.277C121.968 133.057 120.446 134.454 119.064 135.564C118.13 136.321 117.461 136.785 116.38 137.057C115.005 137.41 113.873 137.13 112.667 136.454C112.659 136.454 112.659 136.446 112.645 136.439C111.77 135.674 111.615 134.652 111.733 133.535C110.924 133.373 110.115 133.204 109.306 133.049C109.108 133.645 108.946 134.343 108.887 134.968C108.674 137.255 109.255 139.52 110.652 141.189V141.196Z" fill="#25292C"/>
<path d="M137.519 145.777C132.556 153.799 128.652 155.387 124.578 144.88C124.439 144.527 124.696 143.917 125.328 143.969C129.049 144.241 133.343 144.167 136.975 144.594C137.666 144.674 138.218 144.645 137.512 145.785L137.519 145.777Z" fill="#D56048"/>
<path d="M150.725 103.705C146.505 103.462 142.284 103.234 138.063 102.999C141.953 110.69 145.563 109.991 150.725 103.705Z" fill="#D56048"/>
<defs>
<filter id="filter0_f_10_112" x="-0.00805664" y="372" width="262.516" height="21" filterUnits="userSpaceOnUse" color-interpolation-filters="sRGB">
<feFlood flood-opacity="0" result="BackgroundImageFix"/>
<feBlend mode="normal" in="SourceGraphic" in2="BackgroundImageFix" result="shape"/>
<feGaussianBlur stdDeviation="4" result="effect1_foregroundBlur_10_112"/>
</filter>
</defs>
</svg>
